ISO-10303-21;
HEADER;
FILE_DESCRIPTION(('FreeCAD Model'),'2;1');
FILE_NAME('Open CASCADE Shape Model','2026-09-14T00:00:57',(''),(''),
  'Open CASCADE STEP processor 7.9','FreeCAD','Unknown');
FILE_SCHEMA((
'AP242_MANAGED_MODEL_BASED_3D_ENGINEERING_MIM_LF {1 0 10303 442 1 1 4 }'
    ));
ENDSEC;
DATA;
#1 = APPLICATION_PROTOCOL_DEFINITION('international standard',
  'ap242_managed_model_based_3d_engineering',2013,#2);
#2 = APPLICATION_CONTEXT('Managed model based 3d engineering');
#3 = SHAPE_DEFINITION_REPRESENTATION(#4,#10);
#4 = PRODUCT_DEFINITION_SHAPE('','',#5);
#5 = PRODUCT_DEFINITION('design','',#6,#9);
#6 = PRODUCT_DEFINITION_FORMATION('','',#7);
#7 = PRODUCT('case','case','',(#8));
#8 = PRODUCT_CONTEXT('',#2,'mechanical');
#9 = PRODUCT_DEFINITION_CONTEXT('part definition',#2,'design');
#10 = ADVANCED_BREP_SHAPE_REPRESENTATION('',(#11,#15),#912);
#11 = AXIS2_PLACEMENT_3D('',#12,#13,#14);
#12 = CARTESIAN_POINT('',(0.,0.,0.));
#13 = DIRECTION('',(0.,0.,1.));
#14 = DIRECTION('',(1.,0.,-0.));
#15 = MANIFOLD_SOLID_BREP('',#16);
#16 = CLOSED_SHELL('',(#17,#121,#206,#230,#254,#365,#427,#451,#500,#524,
    #541,#558,#589,#606,#623,#635,#647,#672,#697,#714,#726,#761,#785,
    #809,#826,#851,#876,#888,#900));
#17 = ADVANCED_FACE('',(#18),#116,.T.);
#18 = FACE_BOUND('',#19,.T.);
#19 = EDGE_LOOP('',(#20,#30,#38,#46,#54,#62,#70,#78,#86,#94,#102,#110));
#20 = ORIENTED_EDGE('',*,*,#21,.F.);
#21 = EDGE_CURVE('',#22,#24,#26,.T.);
#22 = VERTEX_POINT('',#23);
#23 = CARTESIAN_POINT('',(-10.18,-7.3,-13.3));
#24 = VERTEX_POINT('',#25);
#25 = CARTESIAN_POINT('',(18.52,-7.3,-13.3));
#26 = LINE('',#27,#28);
#27 = CARTESIAN_POINT('',(11.02,-7.3,-13.3));
#28 = VECTOR('',#29,1.);
#29 = DIRECTION('',(1.,0.,0.));
#30 = ORIENTED_EDGE('',*,*,#31,.T.);
#31 = EDGE_CURVE('',#22,#32,#34,.T.);
#32 = VERTEX_POINT('',#33);
#33 = CARTESIAN_POINT('',(-10.18,4.5,-13.3));
#34 = LINE('',#35,#36);
#35 = CARTESIAN_POINT('',(-10.18,-7.3,-13.3));
#36 = VECTOR('',#37,1.);
#37 = DIRECTION('',(0.,1.,-2.22044604925E-16));
#38 = ORIENTED_EDGE('',*,*,#39,.T.);
#39 = EDGE_CURVE('',#32,#40,#42,.T.);
#40 = VERTEX_POINT('',#41);
#41 = CARTESIAN_POINT('',(-4.75,4.5,-13.3));
#42 = LINE('',#43,#44);
#43 = CARTESIAN_POINT('',(-11.18,4.5,-13.3));
#44 = VECTOR('',#45,1.);
#45 = DIRECTION('',(1.,0.,0.));
#46 = ORIENTED_EDGE('',*,*,#47,.T.);
#47 = EDGE_CURVE('',#40,#48,#50,.T.);
#48 = VERTEX_POINT('',#49);
#49 = CARTESIAN_POINT('',(-4.75,0.5,-13.3));
#50 = LINE('',#51,#52);
#51 = CARTESIAN_POINT('',(-4.75,4.5,-13.3));
#52 = VECTOR('',#53,1.);
#53 = DIRECTION('',(0.,-1.,2.22044604925E-16));
#54 = ORIENTED_EDGE('',*,*,#55,.F.);
#55 = EDGE_CURVE('',#56,#48,#58,.T.);
#56 = VERTEX_POINT('',#57);
#57 = CARTESIAN_POINT('',(4.75,0.5,-13.3));
#58 = LINE('',#59,#60);
#59 = CARTESIAN_POINT('',(4.75,0.5,-13.3));
#60 = VECTOR('',#61,1.);
#61 = DIRECTION('',(-1.,0.,0.));
#62 = ORIENTED_EDGE('',*,*,#63,.F.);
#63 = EDGE_CURVE('',#64,#56,#66,.T.);
#64 = VERTEX_POINT('',#65);
#65 = CARTESIAN_POINT('',(4.75,4.5,-13.3));
#66 = LINE('',#67,#68);
#67 = CARTESIAN_POINT('',(4.75,4.5,-13.3));
#68 = VECTOR('',#69,1.);
#69 = DIRECTION('',(0.,-1.,2.22044604925E-16));
#70 = ORIENTED_EDGE('',*,*,#71,.T.);
#71 = EDGE_CURVE('',#64,#72,#74,.T.);
#72 = VERTEX_POINT('',#73);
#73 = CARTESIAN_POINT('',(10.02,4.5,-13.3));
#74 = LINE('',#75,#76);
#75 = CARTESIAN_POINT('',(-11.18,4.5,-13.3));
#76 = VECTOR('',#77,1.);
#77 = DIRECTION('',(1.,0.,0.));
#78 = ORIENTED_EDGE('',*,*,#79,.F.);
#79 = EDGE_CURVE('',#80,#72,#82,.T.);
#80 = VERTEX_POINT('',#81);
#81 = CARTESIAN_POINT('',(10.02,0.7,-13.3));
#82 = LINE('',#83,#84);
#83 = CARTESIAN_POINT('',(10.02,-0.3,-13.3));
#84 = VECTOR('',#85,1.);
#85 = DIRECTION('',(0.,1.,-2.22044604925E-16));
#86 = ORIENTED_EDGE('',*,*,#87,.F.);
#87 = EDGE_CURVE('',#88,#80,#90,.T.);
#88 = VERTEX_POINT('',#89);
#89 = CARTESIAN_POINT('',(11.02,-0.3,-13.3));
#90 = LINE('',#91,#92);
#91 = CARTESIAN_POINT('',(9.935208333333,0.784791666667,-13.3));
#92 = VECTOR('',#93,1.);
#93 = DIRECTION('',(-0.707106781187,0.707106781187,-2.070730222324E-16)
  );
#94 = ORIENTED_EDGE('',*,*,#95,.T.);
#95 = EDGE_CURVE('',#88,#96,#98,.T.);
#96 = VERTEX_POINT('',#97);
#97 = CARTESIAN_POINT('',(12.02,-1.3,-13.3));
#98 = LINE('',#99,#100);
#99 = CARTESIAN_POINT('',(9.935208333333,0.784791666667,-13.3));
#100 = VECTOR('',#101,1.);
#101 = DIRECTION('',(0.707106781187,-0.707106781187,2.070730222324E-16)
  );
#102 = ORIENTED_EDGE('',*,*,#103,.T.);
#103 = EDGE_CURVE('',#96,#104,#106,.T.);
#104 = VERTEX_POINT('',#105);
#105 = CARTESIAN_POINT('',(18.52,-1.3,-13.3));
#106 = LINE('',#107,#108);
#107 = CARTESIAN_POINT('',(11.02,-1.3,-13.3));
#108 = VECTOR('',#109,1.);
#109 = DIRECTION('',(1.,0.,0.));
#110 = ORIENTED_EDGE('',*,*,#111,.F.);
#111 = EDGE_CURVE('',#24,#104,#112,.T.);
#112 = LINE('',#113,#114);
#113 = CARTESIAN_POINT('',(18.52,-7.3,-13.3));
#114 = VECTOR('',#115,1.);
#115 = DIRECTION('',(0.,1.,-2.22044604925E-16));
#116 = PLANE('',#117);
#117 = AXIS2_PLACEMENT_3D('',#118,#119,#120);
#118 = CARTESIAN_POINT('',(3.905833333333,-2.075,-13.3));
#119 = DIRECTION('',(-0.,-2.928454764427E-16,-1.));
#120 = DIRECTION('',(0.,-1.,2.928454764427E-16));
#121 = ADVANCED_FACE('',(#122,#179,#190),#201,.T.);
#122 = FACE_BOUND('',#123,.T.);
#123 = EDGE_LOOP('',(#124,#134,#142,#150,#156,#157,#165,#173));
#124 = ORIENTED_EDGE('',*,*,#125,.T.);
#125 = EDGE_CURVE('',#126,#128,#130,.T.);
#126 = VERTEX_POINT('',#127);
#127 = CARTESIAN_POINT('',(18.52,-7.3,13.2));
#128 = VERTEX_POINT('',#129);
#129 = CARTESIAN_POINT('',(-10.18,-7.3,13.2));
#130 = LINE('',#131,#132);
#131 = CARTESIAN_POINT('',(11.02,-7.3,13.2));
#132 = VECTOR('',#133,1.);
#133 = DIRECTION('',(-1.,0.,0.));
#134 = ORIENTED_EDGE('',*,*,#135,.F.);
#135 = EDGE_CURVE('',#136,#128,#138,.T.);
#136 = VERTEX_POINT('',#137);
#137 = CARTESIAN_POINT('',(-11.18,-7.3,12.2));
#138 = LINE('',#139,#140);
#139 = CARTESIAN_POINT('',(-9.9675,-7.3,13.4125));
#140 = VECTOR('',#141,1.);
#141 = DIRECTION('',(0.707106781187,0.,0.707106781187));
#142 = ORIENTED_EDGE('',*,*,#143,.T.);
#143 = EDGE_CURVE('',#136,#144,#146,.T.);
#144 = VERTEX_POINT('',#145);
#145 = CARTESIAN_POINT('',(-11.18,-7.3,-12.3));
#146 = LINE('',#147,#148);
#147 = CARTESIAN_POINT('',(-11.18,-7.3,13.2));
#148 = VECTOR('',#149,1.);
#149 = DIRECTION('',(0.,-2.22044604925E-16,-1.));
#150 = ORIENTED_EDGE('',*,*,#151,.F.);
#151 = EDGE_CURVE('',#22,#144,#152,.T.);
#152 = LINE('',#153,#154);
#153 = CARTESIAN_POINT('',(-9.9675,-7.3,-13.5125));
#154 = VECTOR('',#155,1.);
#155 = DIRECTION('',(-0.707106781187,0.,0.707106781187));
#156 = ORIENTED_EDGE('',*,*,#21,.T.);
#157 = ORIENTED_EDGE('',*,*,#158,.T.);
#158 = EDGE_CURVE('',#24,#159,#161,.T.);
#159 = VERTEX_POINT('',#160);
#160 = CARTESIAN_POINT('',(21.02,-7.3,-10.8));
#161 = LINE('',#162,#163);
#162 = CARTESIAN_POINT('',(19.0575,-7.3,-12.7625));
#163 = VECTOR('',#164,1.);
#164 = DIRECTION('',(0.707106781187,0.,0.707106781187));
#165 = ORIENTED_EDGE('',*,*,#166,.T.);
#166 = EDGE_CURVE('',#159,#167,#169,.T.);
#167 = VERTEX_POINT('',#168);
#168 = CARTESIAN_POINT('',(21.02,-7.3,10.7));
#169 = LINE('',#170,#171);
#170 = CARTESIAN_POINT('',(21.02,-7.3,-13.3));
#171 = VECTOR('',#172,1.);
#172 = DIRECTION('',(0.,2.22044604925E-16,1.));
#173 = ORIENTED_EDGE('',*,*,#174,.T.);
#174 = EDGE_CURVE('',#167,#126,#175,.T.);
#175 = LINE('',#176,#177);
#176 = CARTESIAN_POINT('',(19.0575,-7.3,12.6625));
#177 = VECTOR('',#178,1.);
#178 = DIRECTION('',(-0.707106781187,0.,0.707106781187));
#179 = FACE_BOUND('',#180,.T.);
#180 = EDGE_LOOP('',(#181));
#181 = ORIENTED_EDGE('',*,*,#182,.T.);
#182 = EDGE_CURVE('',#183,#183,#185,.T.);
#183 = VERTEX_POINT('',#184);
#184 = CARTESIAN_POINT('',(14.52,-7.3,6.62));
#185 = CIRCLE('',#186,1.5);
#186 = AXIS2_PLACEMENT_3D('',#187,#188,#189);
#187 = CARTESIAN_POINT('',(16.02,-7.3,6.62));
#188 = DIRECTION('',(0.,1.,-2.22044604925E-16));
#189 = DIRECTION('',(-1.,0.,0.));
#190 = FACE_BOUND('',#191,.T.);
#191 = EDGE_LOOP('',(#192));
#192 = ORIENTED_EDGE('',*,*,#193,.T.);
#193 = EDGE_CURVE('',#194,#194,#196,.T.);
#194 = VERTEX_POINT('',#195);
#195 = CARTESIAN_POINT('',(14.52,-7.3,-6.63));
#196 = CIRCLE('',#197,1.5);
#197 = AXIS2_PLACEMENT_3D('',#198,#199,#200);
#198 = CARTESIAN_POINT('',(16.02,-7.3,-6.63));
#199 = DIRECTION('',(0.,1.,-2.22044604925E-16));
#200 = DIRECTION('',(-1.,0.,0.));
#201 = PLANE('',#202);
#202 = AXIS2_PLACEMENT_3D('',#203,#204,#205);
#203 = CARTESIAN_POINT('',(4.92,-7.3,-5.E-02));
#204 = DIRECTION('',(-0.,-1.,-0.));
#205 = DIRECTION('',(0.,0.,-1.));
#206 = ADVANCED_FACE('',(#207),#225,.T.);
#207 = FACE_BOUND('',#208,.F.);
#208 = EDGE_LOOP('',(#209,#210,#211,#219));
#209 = ORIENTED_EDGE('',*,*,#151,.F.);
#210 = ORIENTED_EDGE('',*,*,#31,.T.);
#211 = ORIENTED_EDGE('',*,*,#212,.T.);
#212 = EDGE_CURVE('',#32,#213,#215,.T.);
#213 = VERTEX_POINT('',#214);
#214 = CARTESIAN_POINT('',(-11.18,4.5,-12.3));
#215 = LINE('',#216,#217);
#216 = CARTESIAN_POINT('',(-11.2175,4.5,-12.2625));
#217 = VECTOR('',#218,1.);
#218 = DIRECTION('',(-0.707106781187,0.,0.707106781187));
#219 = ORIENTED_EDGE('',*,*,#220,.F.);
#220 = EDGE_CURVE('',#144,#213,#221,.T.);
#221 = LINE('',#222,#223);
#222 = CARTESIAN_POINT('',(-11.18,-7.3,-12.3));
#223 = VECTOR('',#224,1.);
#224 = DIRECTION('',(0.,1.,-2.22044604925E-16));
#225 = PLANE('',#226);
#226 = AXIS2_PLACEMENT_3D('',#227,#228,#229);
#227 = CARTESIAN_POINT('',(-10.68,-7.3,-12.8));
#228 = DIRECTION('',(-0.707106781187,-2.663016943473E-16,-0.707106781187
    ));
#229 = DIRECTION('',(7.728143145191E-17,-1.,2.993260363769E-16));
#230 = ADVANCED_FACE('',(#231),#249,.T.);
#231 = FACE_BOUND('',#232,.T.);
#232 = EDGE_LOOP('',(#233,#234,#235,#243));
#233 = ORIENTED_EDGE('',*,*,#158,.F.);
#234 = ORIENTED_EDGE('',*,*,#111,.T.);
#235 = ORIENTED_EDGE('',*,*,#236,.T.);
#236 = EDGE_CURVE('',#104,#237,#239,.T.);
#237 = VERTEX_POINT('',#238);
#238 = CARTESIAN_POINT('',(21.02,-1.3,-10.8));
#239 = LINE('',#240,#241);
#240 = CARTESIAN_POINT('',(21.8325,-1.3,-9.9875));
#241 = VECTOR('',#242,1.);
#242 = DIRECTION('',(0.707106781187,0.,0.707106781187));
#243 = ORIENTED_EDGE('',*,*,#244,.F.);
#244 = EDGE_CURVE('',#159,#237,#245,.T.);
#245 = LINE('',#246,#247);
#246 = CARTESIAN_POINT('',(21.02,-7.3,-10.8));
#247 = VECTOR('',#248,1.);
#248 = DIRECTION('',(0.,1.,-2.22044604925E-16));
#249 = PLANE('',#250);
#250 = AXIS2_PLACEMENT_3D('',#251,#252,#253);
#251 = CARTESIAN_POINT('',(19.77,-7.3,-12.05));
#252 = DIRECTION('',(0.707106781187,-2.649531024029E-16,-0.707106781187)
  );
#253 = DIRECTION('',(7.632783294298E-17,1.,-2.98372437868E-16));
#254 = ADVANCED_FACE('',(#255),#360,.T.);
#255 = FACE_BOUND('',#256,.T.);
#256 = EDGE_LOOP('',(#257,#265,#273,#281,#289,#297,#303,#304,#312,#320,
    #328,#336,#344,#352,#358,#359));
#257 = ORIENTED_EDGE('',*,*,#258,.F.);
#258 = EDGE_CURVE('',#259,#213,#261,.T.);
#259 = VERTEX_POINT('',#260);
#260 = CARTESIAN_POINT('',(-11.18,4.5,12.2));
#261 = LINE('',#262,#263);
#262 = CARTESIAN_POINT('',(-11.18,4.5,13.2));
#263 = VECTOR('',#264,1.);
#264 = DIRECTION('',(0.,-2.22044604925E-16,-1.));
#265 = ORIENTED_EDGE('',*,*,#266,.T.);
#266 = EDGE_CURVE('',#259,#267,#269,.T.);
#267 = VERTEX_POINT('',#268);
#268 = CARTESIAN_POINT('',(-10.18,4.5,13.2));
#269 = LINE('',#270,#271);
#270 = CARTESIAN_POINT('',(-11.2175,4.5,12.1625));
#271 = VECTOR('',#272,1.);
#272 = DIRECTION('',(0.707106781187,0.,0.707106781187));
#273 = ORIENTED_EDGE('',*,*,#274,.F.);
#274 = EDGE_CURVE('',#275,#267,#277,.T.);
#275 = VERTEX_POINT('',#276);
#276 = CARTESIAN_POINT('',(10.02,4.5,13.2));
#277 = LINE('',#278,#279);
#278 = CARTESIAN_POINT('',(11.02,4.5,13.2));
#279 = VECTOR('',#280,1.);
#280 = DIRECTION('',(-1.,0.,0.));
#281 = ORIENTED_EDGE('',*,*,#282,.F.);
#282 = EDGE_CURVE('',#283,#275,#285,.T.);
#283 = VERTEX_POINT('',#284);
#284 = CARTESIAN_POINT('',(11.02,4.5,12.2));
#285 = LINE('',#286,#287);
#286 = CARTESIAN_POINT('',(11.0575,4.5,12.1625));
#287 = VECTOR('',#288,1.);
#288 = DIRECTION('',(-0.707106781187,0.,0.707106781187));
#289 = ORIENTED_EDGE('',*,*,#290,.F.);
#290 = EDGE_CURVE('',#291,#283,#293,.T.);
#291 = VERTEX_POINT('',#292);
#292 = CARTESIAN_POINT('',(11.02,4.5,-12.3));
#293 = LINE('',#294,#295);
#294 = CARTESIAN_POINT('',(11.02,4.5,-13.3));
#295 = VECTOR('',#296,1.);
#296 = DIRECTION('',(0.,2.22044604925E-16,1.));
#297 = ORIENTED_EDGE('',*,*,#298,.F.);
#298 = EDGE_CURVE('',#72,#291,#299,.T.);
#299 = LINE('',#300,#301);
#300 = CARTESIAN_POINT('',(11.0575,4.5,-12.2625));
#301 = VECTOR('',#302,1.);
#302 = DIRECTION('',(0.707106781187,0.,0.707106781187));
#303 = ORIENTED_EDGE('',*,*,#71,.F.);
#304 = ORIENTED_EDGE('',*,*,#305,.F.);
#305 = EDGE_CURVE('',#306,#64,#308,.T.);
#306 = VERTEX_POINT('',#307);
#307 = CARTESIAN_POINT('',(4.75,4.5,-11.8));
#308 = LINE('',#309,#310);
#309 = CARTESIAN_POINT('',(4.75,4.5,-11.8));
#310 = VECTOR('',#311,1.);
#311 = DIRECTION('',(0.,-2.22044604925E-16,-1.));
#312 = ORIENTED_EDGE('',*,*,#313,.T.);
#313 = EDGE_CURVE('',#306,#314,#316,.T.);
#314 = VERTEX_POINT('',#315);
#315 = CARTESIAN_POINT('',(9.52,4.5,-11.8));
#316 = LINE('',#317,#318);
#317 = CARTESIAN_POINT('',(-9.68,4.5,-11.8));
#318 = VECTOR('',#319,1.);
#319 = DIRECTION('',(1.,0.,0.));
#320 = ORIENTED_EDGE('',*,*,#321,.T.);
#321 = EDGE_CURVE('',#314,#322,#324,.T.);
#322 = VERTEX_POINT('',#323);
#323 = CARTESIAN_POINT('',(9.52,4.5,11.7));
#324 = LINE('',#325,#326);
#325 = CARTESIAN_POINT('',(9.52,4.5,-11.8));
#326 = VECTOR('',#327,1.);
#327 = DIRECTION('',(0.,2.22044604925E-16,1.));
#328 = ORIENTED_EDGE('',*,*,#329,.T.);
#329 = EDGE_CURVE('',#322,#330,#332,.T.);
#330 = VERTEX_POINT('',#331);
#331 = CARTESIAN_POINT('',(-9.68,4.5,11.7));
#332 = LINE('',#333,#334);
#333 = CARTESIAN_POINT('',(9.52,4.5,11.7));
#334 = VECTOR('',#335,1.);
#335 = DIRECTION('',(-1.,0.,0.));
#336 = ORIENTED_EDGE('',*,*,#337,.T.);
#337 = EDGE_CURVE('',#330,#338,#340,.T.);
#338 = VERTEX_POINT('',#339);
#339 = CARTESIAN_POINT('',(-9.68,4.5,-11.8));
#340 = LINE('',#341,#342);
#341 = CARTESIAN_POINT('',(-9.68,4.5,11.7));
#342 = VECTOR('',#343,1.);
#343 = DIRECTION('',(0.,-2.22044604925E-16,-1.));
#344 = ORIENTED_EDGE('',*,*,#345,.T.);
#345 = EDGE_CURVE('',#338,#346,#348,.T.);
#346 = VERTEX_POINT('',#347);
#347 = CARTESIAN_POINT('',(-4.75,4.5,-11.8));
#348 = LINE('',#349,#350);
#349 = CARTESIAN_POINT('',(-9.68,4.5,-11.8));
#350 = VECTOR('',#351,1.);
#351 = DIRECTION('',(1.,0.,0.));
#352 = ORIENTED_EDGE('',*,*,#353,.F.);
#353 = EDGE_CURVE('',#40,#346,#354,.T.);
#354 = LINE('',#355,#356);
#355 = CARTESIAN_POINT('',(-4.75,4.5,-13.3));
#356 = VECTOR('',#357,1.);
#357 = DIRECTION('',(0.,2.22044604925E-16,1.));
#358 = ORIENTED_EDGE('',*,*,#39,.F.);
#359 = ORIENTED_EDGE('',*,*,#212,.T.);
#360 = PLANE('',#361);
#361 = AXIS2_PLACEMENT_3D('',#362,#363,#364);
#362 = CARTESIAN_POINT('',(-8.E-02,4.5,-5.E-02));
#363 = DIRECTION('',(0.,1.,0.));
#364 = DIRECTION('',(0.,0.,1.));
#365 = ADVANCED_FACE('',(#366,#400,#411),#422,.T.);
#366 = FACE_BOUND('',#367,.T.);
#367 = EDGE_LOOP('',(#368,#378,#386,#392,#393,#394));
#368 = ORIENTED_EDGE('',*,*,#369,.F.);
#369 = EDGE_CURVE('',#370,#372,#374,.T.);
#370 = VERTEX_POINT('',#371);
#371 = CARTESIAN_POINT('',(18.52,-1.3,13.2));
#372 = VERTEX_POINT('',#373);
#373 = CARTESIAN_POINT('',(12.02,-1.3,13.2));
#374 = LINE('',#375,#376);
#375 = CARTESIAN_POINT('',(21.02,-1.3,13.2));
#376 = VECTOR('',#377,1.);
#377 = DIRECTION('',(-1.,0.,0.));
#378 = ORIENTED_EDGE('',*,*,#379,.F.);
#379 = EDGE_CURVE('',#380,#370,#382,.T.);
#380 = VERTEX_POINT('',#381);
#381 = CARTESIAN_POINT('',(21.02,-1.3,10.7));
#382 = LINE('',#383,#384);
#383 = CARTESIAN_POINT('',(21.8325,-1.3,9.8875));
#384 = VECTOR('',#385,1.);
#385 = DIRECTION('',(-0.707106781187,0.,0.707106781187));
#386 = ORIENTED_EDGE('',*,*,#387,.F.);
#387 = EDGE_CURVE('',#237,#380,#388,.T.);
#388 = LINE('',#389,#390);
#389 = CARTESIAN_POINT('',(21.02,-1.3,-13.3));
#390 = VECTOR('',#391,1.);
#391 = DIRECTION('',(0.,2.22044604925E-16,1.));
#392 = ORIENTED_EDGE('',*,*,#236,.F.);
#393 = ORIENTED_EDGE('',*,*,#103,.F.);
#394 = ORIENTED_EDGE('',*,*,#395,.F.);
#395 = EDGE_CURVE('',#372,#96,#396,.T.);
#396 = LINE('',#397,#398);
#397 = CARTESIAN_POINT('',(12.02,-1.3,13.2));
#398 = VECTOR('',#399,1.);
#399 = DIRECTION('',(0.,-2.22044604925E-16,-1.));
#400 = FACE_BOUND('',#401,.T.);
#401 = EDGE_LOOP('',(#402));
#402 = ORIENTED_EDGE('',*,*,#403,.F.);
#403 = EDGE_CURVE('',#404,#404,#406,.T.);
#404 = VERTEX_POINT('',#405);
#405 = CARTESIAN_POINT('',(13.02,-1.3,-6.63));
#406 = CIRCLE('',#407,3.);
#407 = AXIS2_PLACEMENT_3D('',#408,#409,#410);
#408 = CARTESIAN_POINT('',(16.02,-1.3,-6.63));
#409 = DIRECTION('',(0.,1.,-2.22044604925E-16));
#410 = DIRECTION('',(-1.,0.,0.));
#411 = FACE_BOUND('',#412,.T.);
#412 = EDGE_LOOP('',(#413));
#413 = ORIENTED_EDGE('',*,*,#414,.F.);
#414 = EDGE_CURVE('',#415,#415,#417,.T.);
#415 = VERTEX_POINT('',#416);
#416 = CARTESIAN_POINT('',(13.02,-1.3,6.62));
#417 = CIRCLE('',#418,3.);
#418 = AXIS2_PLACEMENT_3D('',#419,#420,#421);
#419 = CARTESIAN_POINT('',(16.02,-1.3,6.62));
#420 = DIRECTION('',(0.,1.,-2.22044604925E-16));
#421 = DIRECTION('',(-1.,0.,0.));
#422 = PLANE('',#423);
#423 = AXIS2_PLACEMENT_3D('',#424,#425,#426);
#424 = CARTESIAN_POINT('',(16.02,-1.3,-5.E-02));
#425 = DIRECTION('',(0.,1.,0.));
#426 = DIRECTION('',(0.,0.,1.));
#427 = ADVANCED_FACE('',(#428),#446,.F.);
#428 = FACE_BOUND('',#429,.F.);
#429 = EDGE_LOOP('',(#430,#431,#439,#445));
#430 = ORIENTED_EDGE('',*,*,#47,.T.);
#431 = ORIENTED_EDGE('',*,*,#432,.T.);
#432 = EDGE_CURVE('',#48,#433,#435,.T.);
#433 = VERTEX_POINT('',#434);
#434 = CARTESIAN_POINT('',(-4.75,0.5,-11.8));
#435 = LINE('',#436,#437);
#436 = CARTESIAN_POINT('',(-4.75,0.5,-13.3));
#437 = VECTOR('',#438,1.);
#438 = DIRECTION('',(0.,2.22044604925E-16,1.));
#439 = ORIENTED_EDGE('',*,*,#440,.F.);
#440 = EDGE_CURVE('',#346,#433,#441,.T.);
#441 = LINE('',#442,#443);
#442 = CARTESIAN_POINT('',(-4.75,4.5,-11.8));
#443 = VECTOR('',#444,1.);
#444 = DIRECTION('',(0.,-1.,2.22044604925E-16));
#445 = ORIENTED_EDGE('',*,*,#353,.F.);
#446 = PLANE('',#447);
#447 = AXIS2_PLACEMENT_3D('',#448,#449,#450);
#448 = CARTESIAN_POINT('',(-4.75,4.5,-13.3));
#449 = DIRECTION('',(-1.,0.,0.));
#450 = DIRECTION('',(0.,2.22044604925E-16,1.));
#451 = ADVANCED_FACE('',(#452),#495,.F.);
#452 = FACE_BOUND('',#453,.F.);
#453 = EDGE_LOOP('',(#454,#464,#470,#471,#472,#473,#481,#489));
#454 = ORIENTED_EDGE('',*,*,#455,.T.);
#455 = EDGE_CURVE('',#456,#458,#460,.T.);
#456 = VERTEX_POINT('',#457);
#457 = CARTESIAN_POINT('',(11.02,-0.3,12.2));
#458 = VERTEX_POINT('',#459);
#459 = CARTESIAN_POINT('',(11.02,-0.3,-12.3));
#460 = LINE('',#461,#462);
#461 = CARTESIAN_POINT('',(11.02,-0.3,13.2));
#462 = VECTOR('',#463,1.);
#463 = DIRECTION('',(0.,-2.22044604925E-16,-1.));
#464 = ORIENTED_EDGE('',*,*,#465,.F.);
#465 = EDGE_CURVE('',#80,#458,#466,.T.);
#466 = LINE('',#467,#468);
#467 = CARTESIAN_POINT('',(15.27,-4.55,-8.05));
#468 = VECTOR('',#469,1.);
#469 = DIRECTION('',(0.57735026919,-0.57735026919,0.57735026919));
#470 = ORIENTED_EDGE('',*,*,#87,.F.);
#471 = ORIENTED_EDGE('',*,*,#95,.T.);
#472 = ORIENTED_EDGE('',*,*,#395,.F.);
#473 = ORIENTED_EDGE('',*,*,#474,.F.);
#474 = EDGE_CURVE('',#475,#372,#477,.T.);
#475 = VERTEX_POINT('',#476);
#476 = CARTESIAN_POINT('',(11.02,-0.3,13.2));
#477 = LINE('',#478,#479);
#478 = CARTESIAN_POINT('',(10.02,0.7,13.2));
#479 = VECTOR('',#480,1.);
#480 = DIRECTION('',(0.707106781187,-0.707106781187,1.954310355237E-16)
  );
#481 = ORIENTED_EDGE('',*,*,#482,.T.);
#482 = EDGE_CURVE('',#475,#483,#485,.T.);
#483 = VERTEX_POINT('',#484);
#484 = CARTESIAN_POINT('',(10.02,0.7,13.2));
#485 = LINE('',#486,#487);
#486 = CARTESIAN_POINT('',(10.02,0.7,13.2));
#487 = VECTOR('',#488,1.);
#488 = DIRECTION('',(-0.707106781187,0.707106781187,-1.954310355237E-16)
  );
#489 = ORIENTED_EDGE('',*,*,#490,.F.);
#490 = EDGE_CURVE('',#456,#483,#491,.T.);
#491 = LINE('',#492,#493);
#492 = CARTESIAN_POINT('',(10.053333333333,0.666666666667,
    13.166666666667));
#493 = VECTOR('',#494,1.);
#494 = DIRECTION('',(-0.57735026919,0.57735026919,0.57735026919));
#495 = PLANE('',#496);
#496 = AXIS2_PLACEMENT_3D('',#497,#498,#499);
#497 = CARTESIAN_POINT('',(11.52,-0.8,13.2));
#498 = DIRECTION('',(-0.707106781187,-0.707106781187,0.));
#499 = DIRECTION('',(1.110223024625E-16,-1.110223024625E-16,-1.));
#500 = ADVANCED_FACE('',(#501),#519,.T.);
#501 = FACE_BOUND('',#502,.T.);
#502 = EDGE_LOOP('',(#503,#511,#512,#513));
#503 = ORIENTED_EDGE('',*,*,#504,.T.);
#504 = EDGE_CURVE('',#505,#56,#507,.T.);
#505 = VERTEX_POINT('',#506);
#506 = CARTESIAN_POINT('',(4.75,0.5,-11.8));
#507 = LINE('',#508,#509);
#508 = CARTESIAN_POINT('',(4.75,0.5,-11.8));
#509 = VECTOR('',#510,1.);
#510 = DIRECTION('',(0.,-2.22044604925E-16,-1.));
#511 = ORIENTED_EDGE('',*,*,#55,.T.);
#512 = ORIENTED_EDGE('',*,*,#432,.T.);
#513 = ORIENTED_EDGE('',*,*,#514,.T.);
#514 = EDGE_CURVE('',#433,#505,#515,.T.);
#515 = LINE('',#516,#517);
#516 = CARTESIAN_POINT('',(-4.75,0.5,-11.8));
#517 = VECTOR('',#518,1.);
#518 = DIRECTION('',(1.,0.,0.));
#519 = PLANE('',#520);
#520 = AXIS2_PLACEMENT_3D('',#521,#522,#523);
#521 = CARTESIAN_POINT('',(0.,0.5,-12.55));
#522 = DIRECTION('',(0.,1.,0.));
#523 = DIRECTION('',(0.,0.,1.));
#524 = ADVANCED_FACE('',(#525),#536,.F.);
#525 = FACE_BOUND('',#526,.F.);
#526 = EDGE_LOOP('',(#527,#533,#534,#535));
#527 = ORIENTED_EDGE('',*,*,#528,.T.);
#528 = EDGE_CURVE('',#306,#505,#529,.T.);
#529 = LINE('',#530,#531);
#530 = CARTESIAN_POINT('',(4.75,4.5,-11.8));
#531 = VECTOR('',#532,1.);
#532 = DIRECTION('',(0.,-1.,2.22044604925E-16));
#533 = ORIENTED_EDGE('',*,*,#504,.T.);
#534 = ORIENTED_EDGE('',*,*,#63,.F.);
#535 = ORIENTED_EDGE('',*,*,#305,.F.);
#536 = PLANE('',#537);
#537 = AXIS2_PLACEMENT_3D('',#538,#539,#540);
#538 = CARTESIAN_POINT('',(4.75,4.5,-11.8));
#539 = DIRECTION('',(1.,0.,0.));
#540 = DIRECTION('',(0.,-2.22044604925E-16,-1.));
#541 = ADVANCED_FACE('',(#542),#553,.T.);
#542 = FACE_BOUND('',#543,.T.);
#543 = EDGE_LOOP('',(#544,#545,#546,#547));
#544 = ORIENTED_EDGE('',*,*,#465,.F.);
#545 = ORIENTED_EDGE('',*,*,#79,.T.);
#546 = ORIENTED_EDGE('',*,*,#298,.T.);
#547 = ORIENTED_EDGE('',*,*,#548,.F.);
#548 = EDGE_CURVE('',#458,#291,#549,.T.);
#549 = LINE('',#550,#551);
#550 = CARTESIAN_POINT('',(11.02,-0.3,-12.3));
#551 = VECTOR('',#552,1.);
#552 = DIRECTION('',(0.,1.,-2.22044604925E-16));
#553 = PLANE('',#554);
#554 = AXIS2_PLACEMENT_3D('',#555,#556,#557);
#555 = CARTESIAN_POINT('',(10.52,-0.3,-12.8));
#556 = DIRECTION('',(0.707106781187,-1.121270291989E-16,-0.707106781187)
  );
#557 = DIRECTION('',(-3.173651976171E-17,1.,-1.903080851633E-16));
#558 = ADVANCED_FACE('',(#559),#584,.T.);
#559 = FACE_BOUND('',#560,.T.);
#560 = EDGE_LOOP('',(#561,#562,#568,#569,#570,#571,#577,#578));
#561 = ORIENTED_EDGE('',*,*,#125,.F.);
#562 = ORIENTED_EDGE('',*,*,#563,.T.);
#563 = EDGE_CURVE('',#126,#370,#564,.T.);
#564 = LINE('',#565,#566);
#565 = CARTESIAN_POINT('',(18.52,-7.3,13.2));
#566 = VECTOR('',#567,1.);
#567 = DIRECTION('',(0.,1.,-2.22044604925E-16));
#568 = ORIENTED_EDGE('',*,*,#369,.T.);
#569 = ORIENTED_EDGE('',*,*,#474,.F.);
#570 = ORIENTED_EDGE('',*,*,#482,.T.);
#571 = ORIENTED_EDGE('',*,*,#572,.F.);
#572 = EDGE_CURVE('',#275,#483,#573,.T.);
#573 = LINE('',#574,#575);
#574 = CARTESIAN_POINT('',(10.02,4.5,13.2));
#575 = VECTOR('',#576,1.);
#576 = DIRECTION('',(0.,-1.,2.22044604925E-16));
#577 = ORIENTED_EDGE('',*,*,#274,.T.);
#578 = ORIENTED_EDGE('',*,*,#579,.T.);
#579 = EDGE_CURVE('',#267,#128,#580,.T.);
#580 = LINE('',#581,#582);
#581 = CARTESIAN_POINT('',(-10.18,4.5,13.2));
#582 = VECTOR('',#583,1.);
#583 = DIRECTION('',(0.,-1.,2.22044604925E-16));
#584 = PLANE('',#585);
#585 = AXIS2_PLACEMENT_3D('',#586,#587,#588);
#586 = CARTESIAN_POINT('',(4.260909090909,-2.059090909091,13.2));
#587 = DIRECTION('',(0.,2.763812209462E-16,1.));
#588 = DIRECTION('',(0.,1.,-2.763812209462E-16));
#589 = ADVANCED_FACE('',(#590),#601,.T.);
#590 = FACE_BOUND('',#591,.T.);
#591 = EDGE_LOOP('',(#592,#593,#599,#600));
#592 = ORIENTED_EDGE('',*,*,#266,.F.);
#593 = ORIENTED_EDGE('',*,*,#594,.T.);
#594 = EDGE_CURVE('',#259,#136,#595,.T.);
#595 = LINE('',#596,#597);
#596 = CARTESIAN_POINT('',(-11.18,4.5,12.2));
#597 = VECTOR('',#598,1.);
#598 = DIRECTION('',(0.,-1.,2.22044604925E-16));
#599 = ORIENTED_EDGE('',*,*,#135,.T.);
#600 = ORIENTED_EDGE('',*,*,#579,.F.);
#601 = PLANE('',#602);
#602 = AXIS2_PLACEMENT_3D('',#603,#604,#605);
#603 = CARTESIAN_POINT('',(-10.68,4.5,12.7));
#604 = DIRECTION('',(-0.707106781187,2.663016943473E-16,0.707106781187)
  );
#605 = DIRECTION('',(-7.728143145191E-17,-1.,2.993260363769E-16));
#606 = ADVANCED_FACE('',(#607),#618,.T.);
#607 = FACE_BOUND('',#608,.T.);
#608 = EDGE_LOOP('',(#609,#610,#616,#617));
#609 = ORIENTED_EDGE('',*,*,#174,.F.);
#610 = ORIENTED_EDGE('',*,*,#611,.T.);
#611 = EDGE_CURVE('',#167,#380,#612,.T.);
#612 = LINE('',#613,#614);
#613 = CARTESIAN_POINT('',(21.02,-7.3,10.7));
#614 = VECTOR('',#615,1.);
#615 = DIRECTION('',(0.,1.,-2.22044604925E-16));
#616 = ORIENTED_EDGE('',*,*,#379,.T.);
#617 = ORIENTED_EDGE('',*,*,#563,.F.);
#618 = PLANE('',#619);
#619 = AXIS2_PLACEMENT_3D('',#620,#621,#622);
#620 = CARTESIAN_POINT('',(19.77,-7.3,11.95));
#621 = DIRECTION('',(0.707106781187,2.355138688026E-16,0.707106781187));
#622 = DIRECTION('',(-5.551115123126E-17,1.,-2.775557561563E-16));
#623 = ADVANCED_FACE('',(#624),#630,.T.);
#624 = FACE_BOUND('',#625,.T.);
#625 = EDGE_LOOP('',(#626,#627,#628,#629));
#626 = ORIENTED_EDGE('',*,*,#258,.T.);
#627 = ORIENTED_EDGE('',*,*,#220,.F.);
#628 = ORIENTED_EDGE('',*,*,#143,.F.);
#629 = ORIENTED_EDGE('',*,*,#594,.F.);
#630 = PLANE('',#631);
#631 = AXIS2_PLACEMENT_3D('',#632,#633,#634);
#632 = CARTESIAN_POINT('',(-11.18,-1.4,-5.E-02));
#633 = DIRECTION('',(-1.,-0.,-0.));
#634 = DIRECTION('',(0.,0.,-1.));
#635 = ADVANCED_FACE('',(#636),#642,.T.);
#636 = FACE_BOUND('',#637,.T.);
#637 = EDGE_LOOP('',(#638,#639,#640,#641));
#638 = ORIENTED_EDGE('',*,*,#166,.F.);
#639 = ORIENTED_EDGE('',*,*,#244,.T.);
#640 = ORIENTED_EDGE('',*,*,#387,.T.);
#641 = ORIENTED_EDGE('',*,*,#611,.F.);
#642 = PLANE('',#643);
#643 = AXIS2_PLACEMENT_3D('',#644,#645,#646);
#644 = CARTESIAN_POINT('',(21.02,-7.3,-13.3));
#645 = DIRECTION('',(1.,0.,0.));
#646 = DIRECTION('',(0.,2.22044604925E-16,1.));
#647 = ADVANCED_FACE('',(#648),#667,.F.);
#648 = FACE_BOUND('',#649,.F.);
#649 = EDGE_LOOP('',(#650,#659,#665,#666));
#650 = ORIENTED_EDGE('',*,*,#651,.F.);
#651 = EDGE_CURVE('',#652,#652,#654,.T.);
#652 = VERTEX_POINT('',#653);
#653 = CARTESIAN_POINT('',(14.52,-4.3,6.62));
#654 = CIRCLE('',#655,1.5);
#655 = AXIS2_PLACEMENT_3D('',#656,#657,#658);
#656 = CARTESIAN_POINT('',(16.02,-4.3,6.62));
#657 = DIRECTION('',(0.,1.,-2.22044604925E-16));
#658 = DIRECTION('',(-1.,0.,0.));
#659 = ORIENTED_EDGE('',*,*,#660,.T.);
#660 = EDGE_CURVE('',#652,#183,#661,.T.);
#661 = LINE('',#662,#663);
#662 = CARTESIAN_POINT('',(14.52,-4.3,6.62));
#663 = VECTOR('',#664,1.);
#664 = DIRECTION('',(0.,-1.,2.22044604925E-16));
#665 = ORIENTED_EDGE('',*,*,#182,.T.);
#666 = ORIENTED_EDGE('',*,*,#660,.F.);
#667 = CYLINDRICAL_SURFACE('',#668,1.5);
#668 = AXIS2_PLACEMENT_3D('',#669,#670,#671);
#669 = CARTESIAN_POINT('',(16.02,-4.3,6.62));
#670 = DIRECTION('',(0.,1.,-2.22044604925E-16));
#671 = DIRECTION('',(-1.,0.,0.));
#672 = ADVANCED_FACE('',(#673),#692,.F.);
#673 = FACE_BOUND('',#674,.F.);
#674 = EDGE_LOOP('',(#675,#684,#690,#691));
#675 = ORIENTED_EDGE('',*,*,#676,.F.);
#676 = EDGE_CURVE('',#677,#677,#679,.T.);
#677 = VERTEX_POINT('',#678);
#678 = CARTESIAN_POINT('',(14.52,-4.3,-6.63));
#679 = CIRCLE('',#680,1.5);
#680 = AXIS2_PLACEMENT_3D('',#681,#682,#683);
#681 = CARTESIAN_POINT('',(16.02,-4.3,-6.63));
#682 = DIRECTION('',(0.,1.,-2.22044604925E-16));
#683 = DIRECTION('',(-1.,0.,0.));
#684 = ORIENTED_EDGE('',*,*,#685,.T.);
#685 = EDGE_CURVE('',#677,#194,#686,.T.);
#686 = LINE('',#687,#688);
#687 = CARTESIAN_POINT('',(14.52,-4.3,-6.63));
#688 = VECTOR('',#689,1.);
#689 = DIRECTION('',(0.,-1.,2.22044604925E-16));
#690 = ORIENTED_EDGE('',*,*,#193,.T.);
#691 = ORIENTED_EDGE('',*,*,#685,.F.);
#692 = CYLINDRICAL_SURFACE('',#693,1.5);
#693 = AXIS2_PLACEMENT_3D('',#694,#695,#696);
#694 = CARTESIAN_POINT('',(16.02,-4.3,-6.63));
#695 = DIRECTION('',(0.,1.,-2.22044604925E-16));
#696 = DIRECTION('',(-1.,0.,0.));
#697 = ADVANCED_FACE('',(#698),#709,.T.);
#698 = FACE_BOUND('',#699,.F.);
#699 = EDGE_LOOP('',(#700,#701,#707,#708));
#700 = ORIENTED_EDGE('',*,*,#282,.F.);
#701 = ORIENTED_EDGE('',*,*,#702,.T.);
#702 = EDGE_CURVE('',#283,#456,#703,.T.);
#703 = LINE('',#704,#705);
#704 = CARTESIAN_POINT('',(11.02,4.5,12.2));
#705 = VECTOR('',#706,1.);
#706 = DIRECTION('',(0.,-1.,2.22044604925E-16));
#707 = ORIENTED_EDGE('',*,*,#490,.T.);
#708 = ORIENTED_EDGE('',*,*,#572,.F.);
#709 = PLANE('',#710);
#710 = AXIS2_PLACEMENT_3D('',#711,#712,#713);
#711 = CARTESIAN_POINT('',(10.52,4.5,12.7));
#712 = DIRECTION('',(0.707106781187,2.382699370476E-16,0.707106781187));
#713 = DIRECTION('',(-5.74599857767E-17,1.,-2.795045907017E-16));
#714 = ADVANCED_FACE('',(#715),#721,.T.);
#715 = FACE_BOUND('',#716,.T.);
#716 = EDGE_LOOP('',(#717,#718,#719,#720));
#717 = ORIENTED_EDGE('',*,*,#455,.T.);
#718 = ORIENTED_EDGE('',*,*,#548,.T.);
#719 = ORIENTED_EDGE('',*,*,#290,.T.);
#720 = ORIENTED_EDGE('',*,*,#702,.T.);
#721 = PLANE('',#722);
#722 = AXIS2_PLACEMENT_3D('',#723,#724,#725);
#723 = CARTESIAN_POINT('',(11.02,-1.4,-5.E-02));
#724 = DIRECTION('',(1.,0.,0.));
#725 = DIRECTION('',(0.,0.,1.));
#726 = ADVANCED_FACE('',(#727),#756,.T.);
#727 = FACE_BOUND('',#728,.T.);
#728 = EDGE_LOOP('',(#729,#730,#738,#746,#752,#753,#754,#755));
#729 = ORIENTED_EDGE('',*,*,#345,.F.);
#730 = ORIENTED_EDGE('',*,*,#731,.T.);
#731 = EDGE_CURVE('',#338,#732,#734,.T.);
#732 = VERTEX_POINT('',#733);
#733 = CARTESIAN_POINT('',(-9.68,-5.3,-11.8));
#734 = LINE('',#735,#736);
#735 = CARTESIAN_POINT('',(-9.68,-2.620126338115E-15,-11.8));
#736 = VECTOR('',#737,1.);
#737 = DIRECTION('',(0.,-1.,2.22044604925E-16));
#738 = ORIENTED_EDGE('',*,*,#739,.T.);
#739 = EDGE_CURVE('',#732,#740,#742,.T.);
#740 = VERTEX_POINT('',#741);
#741 = CARTESIAN_POINT('',(9.52,-5.3,-11.8));
#742 = LINE('',#743,#744);
#743 = CARTESIAN_POINT('',(-9.68,-5.3,-11.8));
#744 = VECTOR('',#745,1.);
#745 = DIRECTION('',(1.,0.,0.));
#746 = ORIENTED_EDGE('',*,*,#747,.F.);
#747 = EDGE_CURVE('',#314,#740,#748,.T.);
#748 = LINE('',#749,#750);
#749 = CARTESIAN_POINT('',(9.52,-2.620126338115E-15,-11.8));
#750 = VECTOR('',#751,1.);
#751 = DIRECTION('',(0.,-1.,2.22044604925E-16));
#752 = ORIENTED_EDGE('',*,*,#313,.F.);
#753 = ORIENTED_EDGE('',*,*,#528,.T.);
#754 = ORIENTED_EDGE('',*,*,#514,.F.);
#755 = ORIENTED_EDGE('',*,*,#440,.F.);
#756 = PLANE('',#757);
#757 = AXIS2_PLACEMENT_3D('',#758,#759,#760);
#758 = CARTESIAN_POINT('',(-8.E-02,-0.4,-11.8));
#759 = DIRECTION('',(0.,3.620312881991E-16,1.));
#760 = DIRECTION('',(0.,1.,-3.620312881991E-16));
#761 = ADVANCED_FACE('',(#762),#780,.T.);
#762 = FACE_BOUND('',#763,.T.);
#763 = EDGE_LOOP('',(#764,#772,#773,#774));
#764 = ORIENTED_EDGE('',*,*,#765,.T.);
#765 = EDGE_CURVE('',#766,#732,#768,.T.);
#766 = VERTEX_POINT('',#767);
#767 = CARTESIAN_POINT('',(-9.68,-5.3,11.7));
#768 = LINE('',#769,#770);
#769 = CARTESIAN_POINT('',(-9.68,-5.3,11.7));
#770 = VECTOR('',#771,1.);
#771 = DIRECTION('',(0.,-2.22044604925E-16,-1.));
#772 = ORIENTED_EDGE('',*,*,#731,.F.);
#773 = ORIENTED_EDGE('',*,*,#337,.F.);
#774 = ORIENTED_EDGE('',*,*,#775,.F.);
#775 = EDGE_CURVE('',#766,#330,#776,.T.);
#776 = LINE('',#777,#778);
#777 = CARTESIAN_POINT('',(-9.68,2.597921877623E-15,11.7));
#778 = VECTOR('',#779,1.);
#779 = DIRECTION('',(0.,1.,-2.22044604925E-16));
#780 = PLANE('',#781);
#781 = AXIS2_PLACEMENT_3D('',#782,#783,#784);
#782 = CARTESIAN_POINT('',(-9.68,-0.4,-5.E-02));
#783 = DIRECTION('',(1.,0.,0.));
#784 = DIRECTION('',(0.,0.,1.));
#785 = ADVANCED_FACE('',(#786),#804,.T.);
#786 = FACE_BOUND('',#787,.T.);
#787 = EDGE_LOOP('',(#788,#796,#802,#803));
#788 = ORIENTED_EDGE('',*,*,#789,.T.);
#789 = EDGE_CURVE('',#322,#790,#792,.T.);
#790 = VERTEX_POINT('',#791);
#791 = CARTESIAN_POINT('',(9.52,-5.3,11.7));
#792 = LINE('',#793,#794);
#793 = CARTESIAN_POINT('',(9.52,2.597921877623E-15,11.7));
#794 = VECTOR('',#795,1.);
#795 = DIRECTION('',(0.,-1.,2.22044604925E-16));
#796 = ORIENTED_EDGE('',*,*,#797,.T.);
#797 = EDGE_CURVE('',#790,#766,#798,.T.);
#798 = LINE('',#799,#800);
#799 = CARTESIAN_POINT('',(9.52,-5.3,11.7));
#800 = VECTOR('',#801,1.);
#801 = DIRECTION('',(-1.,0.,0.));
#802 = ORIENTED_EDGE('',*,*,#775,.T.);
#803 = ORIENTED_EDGE('',*,*,#329,.F.);
#804 = PLANE('',#805);
#805 = AXIS2_PLACEMENT_3D('',#806,#807,#808);
#806 = CARTESIAN_POINT('',(-8.E-02,-0.4,11.7));
#807 = DIRECTION('',(-0.,-3.620312881991E-16,-1.));
#808 = DIRECTION('',(0.,-1.,3.620312881991E-16));
#809 = ADVANCED_FACE('',(#810),#821,.T.);
#810 = FACE_BOUND('',#811,.T.);
#811 = EDGE_LOOP('',(#812,#813,#819,#820));
#812 = ORIENTED_EDGE('',*,*,#747,.T.);
#813 = ORIENTED_EDGE('',*,*,#814,.T.);
#814 = EDGE_CURVE('',#740,#790,#815,.T.);
#815 = LINE('',#816,#817);
#816 = CARTESIAN_POINT('',(9.52,-5.3,-11.8));
#817 = VECTOR('',#818,1.);
#818 = DIRECTION('',(0.,2.22044604925E-16,1.));
#819 = ORIENTED_EDGE('',*,*,#789,.F.);
#820 = ORIENTED_EDGE('',*,*,#321,.F.);
#821 = PLANE('',#822);
#822 = AXIS2_PLACEMENT_3D('',#823,#824,#825);
#823 = CARTESIAN_POINT('',(9.52,-0.4,-5.E-02));
#824 = DIRECTION('',(-1.,-0.,-0.));
#825 = DIRECTION('',(0.,0.,-1.));
#826 = ADVANCED_FACE('',(#827),#846,.F.);
#827 = FACE_BOUND('',#828,.F.);
#828 = EDGE_LOOP('',(#829,#837,#844,#845));
#829 = ORIENTED_EDGE('',*,*,#830,.T.);
#830 = EDGE_CURVE('',#404,#831,#833,.T.);
#831 = VERTEX_POINT('',#832);
#832 = CARTESIAN_POINT('',(13.02,-4.3,-6.63));
#833 = LINE('',#834,#835);
#834 = CARTESIAN_POINT('',(13.02,-1.3,-6.63));
#835 = VECTOR('',#836,1.);
#836 = DIRECTION('',(0.,-1.,2.22044604925E-16));
#837 = ORIENTED_EDGE('',*,*,#838,.T.);
#838 = EDGE_CURVE('',#831,#831,#839,.T.);
#839 = CIRCLE('',#840,3.);
#840 = AXIS2_PLACEMENT_3D('',#841,#842,#843);
#841 = CARTESIAN_POINT('',(16.02,-4.3,-6.63));
#842 = DIRECTION('',(0.,1.,-2.22044604925E-16));
#843 = DIRECTION('',(-1.,0.,0.));
#844 = ORIENTED_EDGE('',*,*,#830,.F.);
#845 = ORIENTED_EDGE('',*,*,#403,.F.);
#846 = CYLINDRICAL_SURFACE('',#847,3.);
#847 = AXIS2_PLACEMENT_3D('',#848,#849,#850);
#848 = CARTESIAN_POINT('',(16.02,-1.3,-6.63));
#849 = DIRECTION('',(0.,1.,-2.22044604925E-16));
#850 = DIRECTION('',(-1.,0.,0.));
#851 = ADVANCED_FACE('',(#852),#871,.F.);
#852 = FACE_BOUND('',#853,.F.);
#853 = EDGE_LOOP('',(#854,#862,#869,#870));
#854 = ORIENTED_EDGE('',*,*,#855,.T.);
#855 = EDGE_CURVE('',#415,#856,#858,.T.);
#856 = VERTEX_POINT('',#857);
#857 = CARTESIAN_POINT('',(13.02,-4.3,6.62));
#858 = LINE('',#859,#860);
#859 = CARTESIAN_POINT('',(13.02,-1.3,6.62));
#860 = VECTOR('',#861,1.);
#861 = DIRECTION('',(0.,-1.,2.22044604925E-16));
#862 = ORIENTED_EDGE('',*,*,#863,.T.);
#863 = EDGE_CURVE('',#856,#856,#864,.T.);
#864 = CIRCLE('',#865,3.);
#865 = AXIS2_PLACEMENT_3D('',#866,#867,#868);
#866 = CARTESIAN_POINT('',(16.02,-4.3,6.62));
#867 = DIRECTION('',(0.,1.,-2.22044604925E-16));
#868 = DIRECTION('',(-1.,0.,0.));
#869 = ORIENTED_EDGE('',*,*,#855,.F.);
#870 = ORIENTED_EDGE('',*,*,#414,.F.);
#871 = CYLINDRICAL_SURFACE('',#872,3.);
#872 = AXIS2_PLACEMENT_3D('',#873,#874,#875);
#873 = CARTESIAN_POINT('',(16.02,-1.3,6.62));
#874 = DIRECTION('',(0.,1.,-2.22044604925E-16));
#875 = DIRECTION('',(-1.,0.,0.));
#876 = ADVANCED_FACE('',(#877,#880),#883,.T.);
#877 = FACE_BOUND('',#878,.T.);
#878 = EDGE_LOOP('',(#879));
#879 = ORIENTED_EDGE('',*,*,#863,.T.);
#880 = FACE_BOUND('',#881,.T.);
#881 = EDGE_LOOP('',(#882));
#882 = ORIENTED_EDGE('',*,*,#651,.F.);
#883 = PLANE('',#884);
#884 = AXIS2_PLACEMENT_3D('',#885,#886,#887);
#885 = CARTESIAN_POINT('',(16.02,-4.3,-4.999999999999E-03));
#886 = DIRECTION('',(0.,1.,-2.225317692021E-16));
#887 = DIRECTION('',(0.,2.225317692021E-16,1.));
#888 = ADVANCED_FACE('',(#889,#892),#895,.T.);
#889 = FACE_BOUND('',#890,.T.);
#890 = EDGE_LOOP('',(#891));
#891 = ORIENTED_EDGE('',*,*,#838,.T.);
#892 = FACE_BOUND('',#893,.T.);
#893 = EDGE_LOOP('',(#894));
#894 = ORIENTED_EDGE('',*,*,#676,.F.);
#895 = PLANE('',#896);
#896 = AXIS2_PLACEMENT_3D('',#897,#898,#899);
#897 = CARTESIAN_POINT('',(16.02,-4.3,-4.999999999999E-03));
#898 = DIRECTION('',(0.,1.,-2.225317692021E-16));
#899 = DIRECTION('',(0.,2.225317692021E-16,1.));
#900 = ADVANCED_FACE('',(#901),#907,.T.);
#901 = FACE_BOUND('',#902,.T.);
#902 = EDGE_LOOP('',(#903,#904,#905,#906));
#903 = ORIENTED_EDGE('',*,*,#739,.F.);
#904 = ORIENTED_EDGE('',*,*,#765,.F.);
#905 = ORIENTED_EDGE('',*,*,#797,.F.);
#906 = ORIENTED_EDGE('',*,*,#814,.F.);
#907 = PLANE('',#908);
#908 = AXIS2_PLACEMENT_3D('',#909,#910,#911);
#909 = CARTESIAN_POINT('',(-8.E-02,-5.3,-5.E-02));
#910 = DIRECTION('',(0.,1.,0.));
#911 = DIRECTION('',(0.,0.,1.));
#912 = ( GEOMETRIC_REPRESENTATION_CONTEXT(3) 
GLOBAL_UNCERTAINTY_ASSIGNED_CONTEXT((#916)) GLOBAL_UNIT_ASSIGNED_CONTEXT
((#913,#914,#915)) REPRESENTATION_CONTEXT('Context #1',
  '3D Context with UNIT and UNCERTAINTY') );
#913 = ( LENGTH_UNIT() NAMED_UNIT(*) SI_UNIT(.MILLI.,.METRE.) );
#914 = ( NAMED_UNIT(*) PLANE_ANGLE_UNIT() SI_UNIT($,.RADIAN.) );
#915 = ( NAMED_UNIT(*) SI_UNIT($,.STERADIAN.) SOLID_ANGLE_UNIT() );
#916 = UNCERTAINTY_MEASURE_WITH_UNIT(LENGTH_MEASURE(5.E-05),#913,
  'distance_accuracy_value','confusion accuracy');
#917 = PRODUCT_RELATED_PRODUCT_CATEGORY('part',$,(#7));
#918 = MECHANICAL_DESIGN_GEOMETRIC_PRESENTATION_REPRESENTATION('',(#919)
  ,#912);
#919 = STYLED_ITEM('color',(#920),#15);
#920 = PRESENTATION_STYLE_ASSIGNMENT((#921,#927));
#921 = SURFACE_STYLE_USAGE(.BOTH.,#922);
#922 = SURFACE_SIDE_STYLE('',(#923));
#923 = SURFACE_STYLE_FILL_AREA(#924);
#924 = FILL_AREA_STYLE('',(#925));
#925 = FILL_AREA_STYLE_COLOUR('',#926);
#926 = COLOUR_RGB('',0.447058818107,0.474509808674,0.501960817233);
#927 = CURVE_STYLE('',#928,POSITIVE_LENGTH_MEASURE(0.1),#929);
#928 = DRAUGHTING_PRE_DEFINED_CURVE_FONT('continuous');
#929 = COLOUR_RGB('',9.803921802644E-02,9.803921802644E-02,
  9.803921802644E-02);
ENDSEC;
END-ISO-10303-21;
