ISO-10303-21;
HEADER;
FILE_DESCRIPTION(('FreeCAD Model'),'2;1');
FILE_NAME('Open CASCADE Shape Model','2026-09-14T21:40:29',(''),(''),
  'Open CASCADE STEP processor 7.9','FreeCAD','Unknown');
FILE_SCHEMA((
'AP242_MANAGED_MODEL_BASED_3D_ENGINEERING_MIM_LF {1 0 10303 442 1 1 4 }'
    ));
ENDSEC;
DATA;
#1 = APPLICATION_PROTOCOL_DEFINITION('international standard',
  'ap242_managed_model_based_3d_engineering',2013,#2);
#2 = APPLICATION_CONTEXT('Managed model based 3d engineering');
#3 = SHAPE_DEFINITION_REPRESENTATION(#4,#10);
#4 = PRODUCT_DEFINITION_SHAPE('','',#5);
#5 = PRODUCT_DEFINITION('design','',#6,#9);
#6 = PRODUCT_DEFINITION_FORMATION('','',#7);
#7 = PRODUCT('cover','cover','',(#8));
#8 = PRODUCT_CONTEXT('',#2,'mechanical');
#9 = PRODUCT_DEFINITION_CONTEXT('part definition',#2,'design');
#10 = ADVANCED_BREP_SHAPE_REPRESENTATION('',(#11,#15),#1079);
#11 = AXIS2_PLACEMENT_3D('',#12,#13,#14);
#12 = CARTESIAN_POINT('',(0.,0.,0.));
#13 = DIRECTION('',(0.,0.,1.));
#14 = DIRECTION('',(1.,0.,-0.));
#15 = MANIFOLD_SOLID_BREP('',#16);
#16 = CLOSED_SHELL('',(#17,#57,#312,#336,#360,#465,#482,#499,#516,#533,
    #545,#576,#600,#624,#641,#672,#696,#720,#737,#754,#776,#793,#810,
    #822,#853,#877,#901,#918,#949,#973,#997,#1014,#1031,#1043,#1055,
    #1067));
#17 = ADVANCED_FACE('',(#18),#52,.F.);
#18 = FACE_BOUND('',#19,.F.);
#19 = EDGE_LOOP('',(#20,#30,#38,#46));
#20 = ORIENTED_EDGE('',*,*,#21,.F.);
#21 = EDGE_CURVE('',#22,#24,#26,.T.);
#22 = VERTEX_POINT('',#23);
#23 = CARTESIAN_POINT('',(11.02,4.5,12.2));
#24 = VERTEX_POINT('',#25);
#25 = CARTESIAN_POINT('',(11.02,4.5,-12.3));
#26 = LINE('',#27,#28);
#27 = CARTESIAN_POINT('',(11.02,4.5,13.2));
#28 = VECTOR('',#29,1.);
#29 = DIRECTION('',(0.,0.,-1.));
#30 = ORIENTED_EDGE('',*,*,#31,.T.);
#31 = EDGE_CURVE('',#22,#32,#34,.T.);
#32 = VERTEX_POINT('',#33);
#33 = CARTESIAN_POINT('',(11.02,6.5,12.2));
#34 = LINE('',#35,#36);
#35 = CARTESIAN_POINT('',(11.02,4.5,12.2));
#36 = VECTOR('',#37,1.);
#37 = DIRECTION('',(0.,1.,-2.2E-16));
#38 = ORIENTED_EDGE('',*,*,#39,.T.);
#39 = EDGE_CURVE('',#32,#40,#42,.T.);
#40 = VERTEX_POINT('',#41);
#41 = CARTESIAN_POINT('',(11.02,6.5,-12.3));
#42 = LINE('',#43,#44);
#43 = CARTESIAN_POINT('',(11.02,6.5,13.2));
#44 = VECTOR('',#45,1.);
#45 = DIRECTION('',(0.,0.,-1.));
#46 = ORIENTED_EDGE('',*,*,#47,.F.);
#47 = EDGE_CURVE('',#24,#40,#48,.T.);
#48 = LINE('',#49,#50);
#49 = CARTESIAN_POINT('',(11.02,4.5,-12.3));
#50 = VECTOR('',#51,1.);
#51 = DIRECTION('',(0.,1.,-2.2E-16));
#52 = PLANE('',#53);
#53 = AXIS2_PLACEMENT_3D('',#54,#55,#56);
#54 = CARTESIAN_POINT('',(11.02,4.5,13.2));
#55 = DIRECTION('',(-1.,0.,0.));
#56 = DIRECTION('',(0.,-2.2E-16,-1.));
#57 = ADVANCED_FACE('',(#58,#115,#149,#183,#194,#228,#262,#296),#307,.F.
  );
#58 = FACE_BOUND('',#59,.F.);
#59 = EDGE_LOOP('',(#60,#61,#69,#77,#85,#93,#101,#109));
#60 = ORIENTED_EDGE('',*,*,#21,.T.);
#61 = ORIENTED_EDGE('',*,*,#62,.T.);
#62 = EDGE_CURVE('',#24,#63,#65,.T.);
#63 = VERTEX_POINT('',#64);
#64 = CARTESIAN_POINT('',(10.02,4.5,-13.3));
#65 = LINE('',#66,#67);
#66 = CARTESIAN_POINT('',(11.0575,4.5,-12.2625));
#67 = VECTOR('',#68,1.);
#68 = DIRECTION('',(-0.707106781187,0.,-0.707106781187));
#69 = ORIENTED_EDGE('',*,*,#70,.T.);
#70 = EDGE_CURVE('',#63,#71,#73,.T.);
#71 = VERTEX_POINT('',#72);
#72 = CARTESIAN_POINT('',(-10.18,4.5,-13.3));
#73 = LINE('',#74,#75);
#74 = CARTESIAN_POINT('',(11.02,4.5,-13.3));
#75 = VECTOR('',#76,1.);
#76 = DIRECTION('',(-1.,0.,0.));
#77 = ORIENTED_EDGE('',*,*,#78,.T.);
#78 = EDGE_CURVE('',#71,#79,#81,.T.);
#79 = VERTEX_POINT('',#80);
#80 = CARTESIAN_POINT('',(-11.18,4.5,-12.3));
#81 = LINE('',#82,#83);
#82 = CARTESIAN_POINT('',(-11.2175,4.5,-12.2625));
#83 = VECTOR('',#84,1.);
#84 = DIRECTION('',(-0.707106781187,0.,0.707106781187));
#85 = ORIENTED_EDGE('',*,*,#86,.T.);
#86 = EDGE_CURVE('',#79,#87,#89,.T.);
#87 = VERTEX_POINT('',#88);
#88 = CARTESIAN_POINT('',(-11.18,4.5,12.2));
#89 = LINE('',#90,#91);
#90 = CARTESIAN_POINT('',(-11.18,4.5,-13.3));
#91 = VECTOR('',#92,1.);
#92 = DIRECTION('',(0.,0.,1.));
#93 = ORIENTED_EDGE('',*,*,#94,.F.);
#94 = EDGE_CURVE('',#95,#87,#97,.T.);
#95 = VERTEX_POINT('',#96);
#96 = CARTESIAN_POINT('',(-10.18,4.5,13.2));
#97 = LINE('',#98,#99);
#98 = CARTESIAN_POINT('',(-11.2175,4.5,12.1625));
#99 = VECTOR('',#100,1.);
#100 = DIRECTION('',(-0.707106781187,0.,-0.707106781187));
#101 = ORIENTED_EDGE('',*,*,#102,.T.);
#102 = EDGE_CURVE('',#95,#103,#105,.T.);
#103 = VERTEX_POINT('',#104);
#104 = CARTESIAN_POINT('',(10.02,4.5,13.2));
#105 = LINE('',#106,#107);
#106 = CARTESIAN_POINT('',(-11.18,4.5,13.2));
#107 = VECTOR('',#108,1.);
#108 = DIRECTION('',(1.,0.,0.));
#109 = ORIENTED_EDGE('',*,*,#110,.F.);
#110 = EDGE_CURVE('',#22,#103,#111,.T.);
#111 = LINE('',#112,#113);
#112 = CARTESIAN_POINT('',(11.0575,4.5,12.1625));
#113 = VECTOR('',#114,1.);
#114 = DIRECTION('',(-0.707106781187,0.,0.707106781187));
#115 = FACE_BOUND('',#116,.F.);
#116 = EDGE_LOOP('',(#117,#127,#135,#143));
#117 = ORIENTED_EDGE('',*,*,#118,.T.);
#118 = EDGE_CURVE('',#119,#121,#123,.T.);
#119 = VERTEX_POINT('',#120);
#120 = CARTESIAN_POINT('',(-9.38,4.5,-11.8));
#121 = VERTEX_POINT('',#122);
#122 = CARTESIAN_POINT('',(-4.75,4.5,-11.8));
#123 = LINE('',#124,#125);
#124 = CARTESIAN_POINT('',(-9.38,4.5,-11.8));
#125 = VECTOR('',#126,1.);
#126 = DIRECTION('',(1.,0.,0.));
#127 = ORIENTED_EDGE('',*,*,#128,.T.);
#128 = EDGE_CURVE('',#121,#129,#131,.T.);
#129 = VERTEX_POINT('',#130);
#130 = CARTESIAN_POINT('',(-4.75,4.5,-10.3));
#131 = LINE('',#132,#133);
#132 = CARTESIAN_POINT('',(-4.75,4.5,-11.8));
#133 = VECTOR('',#134,1.);
#134 = DIRECTION('',(0.,2.22044604925E-16,1.));
#135 = ORIENTED_EDGE('',*,*,#136,.T.);
#136 = EDGE_CURVE('',#129,#137,#139,.T.);
#137 = VERTEX_POINT('',#138);
#138 = CARTESIAN_POINT('',(-9.38,4.5,-10.3));
#139 = LINE('',#140,#141);
#140 = CARTESIAN_POINT('',(-4.75,4.5,-10.3));
#141 = VECTOR('',#142,1.);
#142 = DIRECTION('',(-1.,0.,0.));
#143 = ORIENTED_EDGE('',*,*,#144,.T.);
#144 = EDGE_CURVE('',#137,#119,#145,.T.);
#145 = LINE('',#146,#147);
#146 = CARTESIAN_POINT('',(-9.38,4.5,-10.3));
#147 = VECTOR('',#148,1.);
#148 = DIRECTION('',(0.,-2.22044604925E-16,-1.));
#149 = FACE_BOUND('',#150,.F.);
#150 = EDGE_LOOP('',(#151,#161,#169,#177));
#151 = ORIENTED_EDGE('',*,*,#152,.T.);
#152 = EDGE_CURVE('',#153,#155,#157,.T.);
#153 = VERTEX_POINT('',#154);
#154 = CARTESIAN_POINT('',(-8.180000000006,4.5,6.));
#155 = VERTEX_POINT('',#156);
#156 = CARTESIAN_POINT('',(-9.68,4.5,6.));
#157 = LINE('',#158,#159);
#158 = CARTESIAN_POINT('',(-8.180000000006,4.5,6.));
#159 = VECTOR('',#160,1.);
#160 = DIRECTION('',(-1.,0.,0.));
#161 = ORIENTED_EDGE('',*,*,#162,.T.);
#162 = EDGE_CURVE('',#155,#163,#165,.T.);
#163 = VERTEX_POINT('',#164);
#164 = CARTESIAN_POINT('',(-9.68,4.5,0.));
#165 = LINE('',#166,#167);
#166 = CARTESIAN_POINT('',(-9.68,4.5,6.));
#167 = VECTOR('',#168,1.);
#168 = DIRECTION('',(0.,-2.22044604925E-16,-1.));
#169 = ORIENTED_EDGE('',*,*,#170,.T.);
#170 = EDGE_CURVE('',#163,#171,#173,.T.);
#171 = VERTEX_POINT('',#172);
#172 = CARTESIAN_POINT('',(-8.180000000006,4.5,0.));
#173 = LINE('',#174,#175);
#174 = CARTESIAN_POINT('',(-9.68,4.5,0.));
#175 = VECTOR('',#176,1.);
#176 = DIRECTION('',(1.,0.,0.));
#177 = ORIENTED_EDGE('',*,*,#178,.T.);
#178 = EDGE_CURVE('',#171,#153,#179,.T.);
#179 = LINE('',#180,#181);
#180 = CARTESIAN_POINT('',(-8.180000000006,4.5,0.));
#181 = VECTOR('',#182,1.);
#182 = DIRECTION('',(0.,2.22044604925E-16,1.));
#183 = FACE_BOUND('',#184,.F.);
#184 = EDGE_LOOP('',(#185));
#185 = ORIENTED_EDGE('',*,*,#186,.F.);
#186 = EDGE_CURVE('',#187,#187,#189,.T.);
#187 = VERTEX_POINT('',#188);
#188 = CARTESIAN_POINT('',(-6.11,4.5,4.41));
#189 = CIRCLE('',#190,1.5);
#190 = AXIS2_PLACEMENT_3D('',#191,#192,#193);
#191 = CARTESIAN_POINT('',(-4.61,4.5,4.41));
#192 = DIRECTION('',(0.,1.,-2.22044604925E-16));
#193 = DIRECTION('',(-1.,0.,0.));
#194 = FACE_BOUND('',#195,.F.);
#195 = EDGE_LOOP('',(#196,#206,#214,#222));
#196 = ORIENTED_EDGE('',*,*,#197,.T.);
#197 = EDGE_CURVE('',#198,#200,#202,.T.);
#198 = VERTEX_POINT('',#199);
#199 = CARTESIAN_POINT('',(-5.,4.5,-6.));
#200 = VERTEX_POINT('',#201);
#201 = CARTESIAN_POINT('',(5.,4.5,-6.));
#202 = LINE('',#203,#204);
#203 = CARTESIAN_POINT('',(2.46,4.5,-6.));
#204 = VECTOR('',#205,1.);
#205 = DIRECTION('',(1.,0.,0.));
#206 = ORIENTED_EDGE('',*,*,#207,.T.);
#207 = EDGE_CURVE('',#200,#208,#210,.T.);
#208 = VERTEX_POINT('',#209);
#209 = CARTESIAN_POINT('',(5.,4.5,-4.));
#210 = LINE('',#211,#212);
#211 = CARTESIAN_POINT('',(5.,4.5,-2.025));
#212 = VECTOR('',#213,1.);
#213 = DIRECTION('',(0.,0.,1.));
#214 = ORIENTED_EDGE('',*,*,#215,.T.);
#215 = EDGE_CURVE('',#208,#216,#218,.T.);
#216 = VERTEX_POINT('',#217);
#217 = CARTESIAN_POINT('',(-5.,4.5,-4.));
#218 = LINE('',#219,#220);
#219 = CARTESIAN_POINT('',(-2.54,4.5,-4.));
#220 = VECTOR('',#221,1.);
#221 = DIRECTION('',(-1.,0.,0.));
#222 = ORIENTED_EDGE('',*,*,#223,.T.);
#223 = EDGE_CURVE('',#216,#198,#224,.T.);
#224 = LINE('',#225,#226);
#225 = CARTESIAN_POINT('',(-5.,4.5,-3.025));
#226 = VECTOR('',#227,1.);
#227 = DIRECTION('',(0.,0.,-1.));
#228 = FACE_BOUND('',#229,.F.);
#229 = EDGE_LOOP('',(#230,#240,#248,#256));
#230 = ORIENTED_EDGE('',*,*,#231,.T.);
#231 = EDGE_CURVE('',#232,#234,#236,.T.);
#232 = VERTEX_POINT('',#233);
#233 = CARTESIAN_POINT('',(4.75,4.5,-10.3));
#234 = VERTEX_POINT('',#235);
#235 = CARTESIAN_POINT('',(4.75,4.5,-11.8));
#236 = LINE('',#237,#238);
#237 = CARTESIAN_POINT('',(4.75,4.5,-10.3));
#238 = VECTOR('',#239,1.);
#239 = DIRECTION('',(0.,-2.22044604925E-16,-1.));
#240 = ORIENTED_EDGE('',*,*,#241,.T.);
#241 = EDGE_CURVE('',#234,#242,#244,.T.);
#242 = VERTEX_POINT('',#243);
#243 = CARTESIAN_POINT('',(9.22,4.5,-11.8));
#244 = LINE('',#245,#246);
#245 = CARTESIAN_POINT('',(4.75,4.5,-11.8));
#246 = VECTOR('',#247,1.);
#247 = DIRECTION('',(1.,0.,0.));
#248 = ORIENTED_EDGE('',*,*,#249,.T.);
#249 = EDGE_CURVE('',#242,#250,#252,.T.);
#250 = VERTEX_POINT('',#251);
#251 = CARTESIAN_POINT('',(9.22,4.5,-10.3));
#252 = LINE('',#253,#254);
#253 = CARTESIAN_POINT('',(9.22,4.5,-11.8));
#254 = VECTOR('',#255,1.);
#255 = DIRECTION('',(0.,2.22044604925E-16,1.));
#256 = ORIENTED_EDGE('',*,*,#257,.T.);
#257 = EDGE_CURVE('',#250,#232,#258,.T.);
#258 = LINE('',#259,#260);
#259 = CARTESIAN_POINT('',(9.22,4.5,-10.3));
#260 = VECTOR('',#261,1.);
#261 = DIRECTION('',(-1.,0.,0.));
#262 = FACE_BOUND('',#263,.F.);
#263 = EDGE_LOOP('',(#264,#274,#282,#290));
#264 = ORIENTED_EDGE('',*,*,#265,.T.);
#265 = EDGE_CURVE('',#266,#268,#270,.T.);
#266 = VERTEX_POINT('',#267);
#267 = CARTESIAN_POINT('',(3.,4.5,11.7));
#268 = VERTEX_POINT('',#269);
#269 = CARTESIAN_POINT('',(-3.,4.5,11.7));
#270 = LINE('',#271,#272);
#271 = CARTESIAN_POINT('',(3.,4.5,11.7));
#272 = VECTOR('',#273,1.);
#273 = DIRECTION('',(-1.,0.,0.));
#274 = ORIENTED_EDGE('',*,*,#275,.T.);
#275 = EDGE_CURVE('',#268,#276,#278,.T.);
#276 = VERTEX_POINT('',#277);
#277 = CARTESIAN_POINT('',(-3.,4.5,10.2));
#278 = LINE('',#279,#280);
#279 = CARTESIAN_POINT('',(-3.,4.5,11.7));
#280 = VECTOR('',#281,1.);
#281 = DIRECTION('',(0.,-2.22044604925E-16,-1.));
#282 = ORIENTED_EDGE('',*,*,#283,.T.);
#283 = EDGE_CURVE('',#276,#284,#286,.T.);
#284 = VERTEX_POINT('',#285);
#285 = CARTESIAN_POINT('',(3.,4.5,10.2));
#286 = LINE('',#287,#288);
#287 = CARTESIAN_POINT('',(-3.,4.5,10.2));
#288 = VECTOR('',#289,1.);
#289 = DIRECTION('',(1.,0.,0.));
#290 = ORIENTED_EDGE('',*,*,#291,.T.);
#291 = EDGE_CURVE('',#284,#266,#292,.T.);
#292 = LINE('',#293,#294);
#293 = CARTESIAN_POINT('',(3.,4.5,10.2));
#294 = VECTOR('',#295,1.);
#295 = DIRECTION('',(0.,2.22044604925E-16,1.));
#296 = FACE_BOUND('',#297,.F.);
#297 = EDGE_LOOP('',(#298));
#298 = ORIENTED_EDGE('',*,*,#299,.F.);
#299 = EDGE_CURVE('',#300,#300,#302,.T.);
#300 = VERTEX_POINT('',#301);
#301 = CARTESIAN_POINT('',(3.11,4.5,4.41));
#302 = CIRCLE('',#303,1.5);
#303 = AXIS2_PLACEMENT_3D('',#304,#305,#306);
#304 = CARTESIAN_POINT('',(4.61,4.5,4.41));
#305 = DIRECTION('',(0.,1.,-2.22044604925E-16));
#306 = DIRECTION('',(-1.,0.,0.));
#307 = PLANE('',#308);
#308 = AXIS2_PLACEMENT_3D('',#309,#310,#311);
#309 = CARTESIAN_POINT('',(-8.E-02,4.5,-5.E-02));
#310 = DIRECTION('',(0.,1.,0.));
#311 = DIRECTION('',(0.,0.,1.));
#312 = ADVANCED_FACE('',(#313),#331,.T.);
#313 = FACE_BOUND('',#314,.T.);
#314 = EDGE_LOOP('',(#315,#316,#317,#325));
#315 = ORIENTED_EDGE('',*,*,#110,.F.);
#316 = ORIENTED_EDGE('',*,*,#31,.T.);
#317 = ORIENTED_EDGE('',*,*,#318,.T.);
#318 = EDGE_CURVE('',#32,#319,#321,.T.);
#319 = VERTEX_POINT('',#320);
#320 = CARTESIAN_POINT('',(10.02,6.5,13.2));
#321 = LINE('',#322,#323);
#322 = CARTESIAN_POINT('',(11.0575,6.5,12.1625));
#323 = VECTOR('',#324,1.);
#324 = DIRECTION('',(-0.707106781187,0.,0.707106781187));
#325 = ORIENTED_EDGE('',*,*,#326,.F.);
#326 = EDGE_CURVE('',#103,#319,#327,.T.);
#327 = LINE('',#328,#329);
#328 = CARTESIAN_POINT('',(10.02,4.5,13.2));
#329 = VECTOR('',#330,1.);
#330 = DIRECTION('',(0.,1.,-2.2E-16));
#331 = PLANE('',#332);
#332 = AXIS2_PLACEMENT_3D('',#333,#334,#335);
#333 = CARTESIAN_POINT('',(10.52,4.5,12.7));
#334 = DIRECTION('',(0.707106781187,1.121270291989E-16,0.707106781187));
#335 = DIRECTION('',(3.071421729919E-17,1.,-1.892857827008E-16));
#336 = ADVANCED_FACE('',(#337),#355,.T.);
#337 = FACE_BOUND('',#338,.F.);
#338 = EDGE_LOOP('',(#339,#340,#341,#349));
#339 = ORIENTED_EDGE('',*,*,#62,.F.);
#340 = ORIENTED_EDGE('',*,*,#47,.T.);
#341 = ORIENTED_EDGE('',*,*,#342,.T.);
#342 = EDGE_CURVE('',#40,#343,#345,.T.);
#343 = VERTEX_POINT('',#344);
#344 = CARTESIAN_POINT('',(10.02,6.5,-13.3));
#345 = LINE('',#346,#347);
#346 = CARTESIAN_POINT('',(11.0575,6.5,-12.2625));
#347 = VECTOR('',#348,1.);
#348 = DIRECTION('',(-0.707106781187,0.,-0.707106781187));
#349 = ORIENTED_EDGE('',*,*,#350,.F.);
#350 = EDGE_CURVE('',#63,#343,#351,.T.);
#351 = LINE('',#352,#353);
#352 = CARTESIAN_POINT('',(10.02,4.5,-13.3));
#353 = VECTOR('',#354,1.);
#354 = DIRECTION('',(0.,1.,-2.2E-16));
#355 = PLANE('',#356);
#356 = AXIS2_PLACEMENT_3D('',#357,#358,#359);
#357 = CARTESIAN_POINT('',(10.52,4.5,-12.8));
#358 = DIRECTION('',(0.707106781187,-1.121270291989E-16,-0.707106781187)
  );
#359 = DIRECTION('',(3.071421729919E-17,-1.,1.892857827008E-16));
#360 = ADVANCED_FACE('',(#361,#404,#415,#449),#460,.T.);
#361 = FACE_BOUND('',#362,.T.);
#362 = EDGE_LOOP('',(#363,#364,#365,#373,#381,#389,#397,#403));
#363 = ORIENTED_EDGE('',*,*,#39,.T.);
#364 = ORIENTED_EDGE('',*,*,#342,.T.);
#365 = ORIENTED_EDGE('',*,*,#366,.T.);
#366 = EDGE_CURVE('',#343,#367,#369,.T.);
#367 = VERTEX_POINT('',#368);
#368 = CARTESIAN_POINT('',(-10.18,6.5,-13.3));
#369 = LINE('',#370,#371);
#370 = CARTESIAN_POINT('',(11.02,6.5,-13.3));
#371 = VECTOR('',#372,1.);
#372 = DIRECTION('',(-1.,0.,0.));
#373 = ORIENTED_EDGE('',*,*,#374,.T.);
#374 = EDGE_CURVE('',#367,#375,#377,.T.);
#375 = VERTEX_POINT('',#376);
#376 = CARTESIAN_POINT('',(-11.18,6.5,-12.3));
#377 = LINE('',#378,#379);
#378 = CARTESIAN_POINT('',(-11.2175,6.5,-12.2625));
#379 = VECTOR('',#380,1.);
#380 = DIRECTION('',(-0.707106781187,0.,0.707106781187));
#381 = ORIENTED_EDGE('',*,*,#382,.T.);
#382 = EDGE_CURVE('',#375,#383,#385,.T.);
#383 = VERTEX_POINT('',#384);
#384 = CARTESIAN_POINT('',(-11.18,6.5,12.2));
#385 = LINE('',#386,#387);
#386 = CARTESIAN_POINT('',(-11.18,6.5,-13.3));
#387 = VECTOR('',#388,1.);
#388 = DIRECTION('',(0.,0.,1.));
#389 = ORIENTED_EDGE('',*,*,#390,.F.);
#390 = EDGE_CURVE('',#391,#383,#393,.T.);
#391 = VERTEX_POINT('',#392);
#392 = CARTESIAN_POINT('',(-10.18,6.5,13.2));
#393 = LINE('',#394,#395);
#394 = CARTESIAN_POINT('',(-11.2175,6.5,12.1625));
#395 = VECTOR('',#396,1.);
#396 = DIRECTION('',(-0.707106781187,0.,-0.707106781187));
#397 = ORIENTED_EDGE('',*,*,#398,.T.);
#398 = EDGE_CURVE('',#391,#319,#399,.T.);
#399 = LINE('',#400,#401);
#400 = CARTESIAN_POINT('',(-11.18,6.5,13.2));
#401 = VECTOR('',#402,1.);
#402 = DIRECTION('',(1.,0.,0.));
#403 = ORIENTED_EDGE('',*,*,#318,.F.);
#404 = FACE_BOUND('',#405,.T.);
#405 = EDGE_LOOP('',(#406));
#406 = ORIENTED_EDGE('',*,*,#407,.F.);
#407 = EDGE_CURVE('',#408,#408,#410,.T.);
#408 = VERTEX_POINT('',#409);
#409 = CARTESIAN_POINT('',(-6.11,6.5,4.41));
#410 = CIRCLE('',#411,1.5);
#411 = AXIS2_PLACEMENT_3D('',#412,#413,#414);
#412 = CARTESIAN_POINT('',(-4.61,6.5,4.41));
#413 = DIRECTION('',(0.,1.,-2.22044604925E-16));
#414 = DIRECTION('',(-1.,0.,0.));
#415 = FACE_BOUND('',#416,.T.);
#416 = EDGE_LOOP('',(#417,#427,#435,#443));
#417 = ORIENTED_EDGE('',*,*,#418,.F.);
#418 = EDGE_CURVE('',#419,#421,#423,.T.);
#419 = VERTEX_POINT('',#420);
#420 = CARTESIAN_POINT('',(5.,6.5,-4.));
#421 = VERTEX_POINT('',#422);
#422 = CARTESIAN_POINT('',(5.,6.5,-6.));
#423 = LINE('',#424,#425);
#424 = CARTESIAN_POINT('',(5.,6.5,-4.));
#425 = VECTOR('',#426,1.);
#426 = DIRECTION('',(0.,-2.22044604925E-16,-1.));
#427 = ORIENTED_EDGE('',*,*,#428,.F.);
#428 = EDGE_CURVE('',#429,#419,#431,.T.);
#429 = VERTEX_POINT('',#430);
#430 = CARTESIAN_POINT('',(-5.,6.5,-4.));
#431 = LINE('',#432,#433);
#432 = CARTESIAN_POINT('',(-5.,6.5,-4.));
#433 = VECTOR('',#434,1.);
#434 = DIRECTION('',(1.,0.,0.));
#435 = ORIENTED_EDGE('',*,*,#436,.F.);
#436 = EDGE_CURVE('',#437,#429,#439,.T.);
#437 = VERTEX_POINT('',#438);
#438 = CARTESIAN_POINT('',(-5.,6.5,-6.));
#439 = LINE('',#440,#441);
#440 = CARTESIAN_POINT('',(-5.,6.5,-6.));
#441 = VECTOR('',#442,1.);
#442 = DIRECTION('',(0.,2.22044604925E-16,1.));
#443 = ORIENTED_EDGE('',*,*,#444,.F.);
#444 = EDGE_CURVE('',#421,#437,#445,.T.);
#445 = LINE('',#446,#447);
#446 = CARTESIAN_POINT('',(5.,6.5,-6.));
#447 = VECTOR('',#448,1.);
#448 = DIRECTION('',(-1.,0.,0.));
#449 = FACE_BOUND('',#450,.T.);
#450 = EDGE_LOOP('',(#451));
#451 = ORIENTED_EDGE('',*,*,#452,.F.);
#452 = EDGE_CURVE('',#453,#453,#455,.T.);
#453 = VERTEX_POINT('',#454);
#454 = CARTESIAN_POINT('',(3.11,6.5,4.41));
#455 = CIRCLE('',#456,1.5);
#456 = AXIS2_PLACEMENT_3D('',#457,#458,#459);
#457 = CARTESIAN_POINT('',(4.61,6.5,4.41));
#458 = DIRECTION('',(0.,1.,-2.22044604925E-16));
#459 = DIRECTION('',(-1.,0.,0.));
#460 = PLANE('',#461);
#461 = AXIS2_PLACEMENT_3D('',#462,#463,#464);
#462 = CARTESIAN_POINT('',(-8.E-02,6.5,-5.E-02));
#463 = DIRECTION('',(0.,1.,0.));
#464 = DIRECTION('',(0.,0.,1.));
#465 = ADVANCED_FACE('',(#466),#477,.F.);
#466 = FACE_BOUND('',#467,.F.);
#467 = EDGE_LOOP('',(#468,#469,#475,#476));
#468 = ORIENTED_EDGE('',*,*,#102,.F.);
#469 = ORIENTED_EDGE('',*,*,#470,.T.);
#470 = EDGE_CURVE('',#95,#391,#471,.T.);
#471 = LINE('',#472,#473);
#472 = CARTESIAN_POINT('',(-10.18,4.5,13.2));
#473 = VECTOR('',#474,1.);
#474 = DIRECTION('',(0.,1.,-2.2E-16));
#475 = ORIENTED_EDGE('',*,*,#398,.T.);
#476 = ORIENTED_EDGE('',*,*,#326,.F.);
#477 = PLANE('',#478);
#478 = AXIS2_PLACEMENT_3D('',#479,#480,#481);
#479 = CARTESIAN_POINT('',(-11.18,4.5,13.2));
#480 = DIRECTION('',(0.,-2.2E-16,-1.));
#481 = DIRECTION('',(1.,0.,0.));
#482 = ADVANCED_FACE('',(#483),#494,.F.);
#483 = FACE_BOUND('',#484,.F.);
#484 = EDGE_LOOP('',(#485,#486,#487,#488));
#485 = ORIENTED_EDGE('',*,*,#70,.F.);
#486 = ORIENTED_EDGE('',*,*,#350,.T.);
#487 = ORIENTED_EDGE('',*,*,#366,.T.);
#488 = ORIENTED_EDGE('',*,*,#489,.F.);
#489 = EDGE_CURVE('',#71,#367,#490,.T.);
#490 = LINE('',#491,#492);
#491 = CARTESIAN_POINT('',(-10.18,4.5,-13.3));
#492 = VECTOR('',#493,1.);
#493 = DIRECTION('',(0.,1.,-2.2E-16));
#494 = PLANE('',#495);
#495 = AXIS2_PLACEMENT_3D('',#496,#497,#498);
#496 = CARTESIAN_POINT('',(11.02,4.5,-13.3));
#497 = DIRECTION('',(0.,2.2E-16,1.));
#498 = DIRECTION('',(-1.,0.,0.));
#499 = ADVANCED_FACE('',(#500),#511,.T.);
#500 = FACE_BOUND('',#501,.T.);
#501 = EDGE_LOOP('',(#502,#503,#504,#505));
#502 = ORIENTED_EDGE('',*,*,#94,.F.);
#503 = ORIENTED_EDGE('',*,*,#470,.T.);
#504 = ORIENTED_EDGE('',*,*,#390,.T.);
#505 = ORIENTED_EDGE('',*,*,#506,.F.);
#506 = EDGE_CURVE('',#87,#383,#507,.T.);
#507 = LINE('',#508,#509);
#508 = CARTESIAN_POINT('',(-11.18,4.5,12.2));
#509 = VECTOR('',#510,1.);
#510 = DIRECTION('',(0.,1.,-2.2E-16));
#511 = PLANE('',#512);
#512 = AXIS2_PLACEMENT_3D('',#513,#514,#515);
#513 = CARTESIAN_POINT('',(-10.68,4.5,12.7));
#514 = DIRECTION('',(-0.707106781187,1.401587864986E-16,0.707106781187)
  );
#515 = DIRECTION('',(-1.089277162399E-17,1.,-2.09107228376E-16));
#516 = ADVANCED_FACE('',(#517),#528,.T.);
#517 = FACE_BOUND('',#518,.F.);
#518 = EDGE_LOOP('',(#519,#520,#521,#522));
#519 = ORIENTED_EDGE('',*,*,#78,.F.);
#520 = ORIENTED_EDGE('',*,*,#489,.T.);
#521 = ORIENTED_EDGE('',*,*,#374,.T.);
#522 = ORIENTED_EDGE('',*,*,#523,.F.);
#523 = EDGE_CURVE('',#79,#375,#524,.T.);
#524 = LINE('',#525,#526);
#525 = CARTESIAN_POINT('',(-11.18,4.5,-12.3));
#526 = VECTOR('',#527,1.);
#527 = DIRECTION('',(0.,1.,-2.2E-16));
#528 = PLANE('',#529);
#529 = AXIS2_PLACEMENT_3D('',#530,#531,#532);
#530 = CARTESIAN_POINT('',(-10.68,4.5,-12.8));
#531 = DIRECTION('',(-0.707106781187,-1.401587864986E-16,-0.707106781187
    ));
#532 = DIRECTION('',(-1.089277162399E-17,-1.,2.09107228376E-16));
#533 = ADVANCED_FACE('',(#534),#540,.F.);
#534 = FACE_BOUND('',#535,.F.);
#535 = EDGE_LOOP('',(#536,#537,#538,#539));
#536 = ORIENTED_EDGE('',*,*,#86,.F.);
#537 = ORIENTED_EDGE('',*,*,#523,.T.);
#538 = ORIENTED_EDGE('',*,*,#382,.T.);
#539 = ORIENTED_EDGE('',*,*,#506,.F.);
#540 = PLANE('',#541);
#541 = AXIS2_PLACEMENT_3D('',#542,#543,#544);
#542 = CARTESIAN_POINT('',(-11.18,4.5,-13.3));
#543 = DIRECTION('',(1.,0.,0.));
#544 = DIRECTION('',(0.,2.2E-16,1.));
#545 = ADVANCED_FACE('',(#546),#571,.F.);
#546 = FACE_BOUND('',#547,.F.);
#547 = EDGE_LOOP('',(#548,#556,#564,#570));
#548 = ORIENTED_EDGE('',*,*,#549,.T.);
#549 = EDGE_CURVE('',#119,#550,#552,.T.);
#550 = VERTEX_POINT('',#551);
#551 = CARTESIAN_POINT('',(-9.38,2.5,-11.8));
#552 = LINE('',#553,#554);
#553 = CARTESIAN_POINT('',(-9.38,4.5,-11.8));
#554 = VECTOR('',#555,1.);
#555 = DIRECTION('',(0.,-1.,2.22044604925E-16));
#556 = ORIENTED_EDGE('',*,*,#557,.T.);
#557 = EDGE_CURVE('',#550,#558,#560,.T.);
#558 = VERTEX_POINT('',#559);
#559 = CARTESIAN_POINT('',(-4.75,2.5,-11.8));
#560 = LINE('',#561,#562);
#561 = CARTESIAN_POINT('',(-9.38,2.5,-11.8));
#562 = VECTOR('',#563,1.);
#563 = DIRECTION('',(1.,0.,0.));
#564 = ORIENTED_EDGE('',*,*,#565,.F.);
#565 = EDGE_CURVE('',#121,#558,#566,.T.);
#566 = LINE('',#567,#568);
#567 = CARTESIAN_POINT('',(-4.75,4.5,-11.8));
#568 = VECTOR('',#569,1.);
#569 = DIRECTION('',(0.,-1.,2.22044604925E-16));
#570 = ORIENTED_EDGE('',*,*,#118,.F.);
#571 = PLANE('',#572);
#572 = AXIS2_PLACEMENT_3D('',#573,#574,#575);
#573 = CARTESIAN_POINT('',(-9.38,4.5,-11.8));
#574 = DIRECTION('',(0.,2.22044604925E-16,1.));
#575 = DIRECTION('',(1.,0.,0.));
#576 = ADVANCED_FACE('',(#577),#595,.F.);
#577 = FACE_BOUND('',#578,.F.);
#578 = EDGE_LOOP('',(#579,#587,#593,#594));
#579 = ORIENTED_EDGE('',*,*,#580,.T.);
#580 = EDGE_CURVE('',#137,#581,#583,.T.);
#581 = VERTEX_POINT('',#582);
#582 = CARTESIAN_POINT('',(-9.38,2.5,-10.3));
#583 = LINE('',#584,#585);
#584 = CARTESIAN_POINT('',(-9.38,4.5,-10.3));
#585 = VECTOR('',#586,1.);
#586 = DIRECTION('',(0.,-1.,2.22044604925E-16));
#587 = ORIENTED_EDGE('',*,*,#588,.T.);
#588 = EDGE_CURVE('',#581,#550,#589,.T.);
#589 = LINE('',#590,#591);
#590 = CARTESIAN_POINT('',(-9.38,2.5,-10.3));
#591 = VECTOR('',#592,1.);
#592 = DIRECTION('',(0.,-2.22044604925E-16,-1.));
#593 = ORIENTED_EDGE('',*,*,#549,.F.);
#594 = ORIENTED_EDGE('',*,*,#144,.F.);
#595 = PLANE('',#596);
#596 = AXIS2_PLACEMENT_3D('',#597,#598,#599);
#597 = CARTESIAN_POINT('',(-9.38,4.5,-10.3));
#598 = DIRECTION('',(1.,0.,0.));
#599 = DIRECTION('',(0.,-2.22044604925E-16,-1.));
#600 = ADVANCED_FACE('',(#601),#619,.F.);
#601 = FACE_BOUND('',#602,.F.);
#602 = EDGE_LOOP('',(#603,#604,#612,#618));
#603 = ORIENTED_EDGE('',*,*,#565,.T.);
#604 = ORIENTED_EDGE('',*,*,#605,.T.);
#605 = EDGE_CURVE('',#558,#606,#608,.T.);
#606 = VERTEX_POINT('',#607);
#607 = CARTESIAN_POINT('',(-4.75,2.5,-10.3));
#608 = LINE('',#609,#610);
#609 = CARTESIAN_POINT('',(-4.75,2.5,-11.8));
#610 = VECTOR('',#611,1.);
#611 = DIRECTION('',(0.,2.22044604925E-16,1.));
#612 = ORIENTED_EDGE('',*,*,#613,.F.);
#613 = EDGE_CURVE('',#129,#606,#614,.T.);
#614 = LINE('',#615,#616);
#615 = CARTESIAN_POINT('',(-4.75,4.5,-10.3));
#616 = VECTOR('',#617,1.);
#617 = DIRECTION('',(0.,-1.,2.22044604925E-16));
#618 = ORIENTED_EDGE('',*,*,#128,.F.);
#619 = PLANE('',#620);
#620 = AXIS2_PLACEMENT_3D('',#621,#622,#623);
#621 = CARTESIAN_POINT('',(-4.75,4.5,-11.8));
#622 = DIRECTION('',(-1.,0.,0.));
#623 = DIRECTION('',(0.,2.22044604925E-16,1.));
#624 = ADVANCED_FACE('',(#625),#636,.F.);
#625 = FACE_BOUND('',#626,.F.);
#626 = EDGE_LOOP('',(#627,#628,#634,#635));
#627 = ORIENTED_EDGE('',*,*,#613,.T.);
#628 = ORIENTED_EDGE('',*,*,#629,.T.);
#629 = EDGE_CURVE('',#606,#581,#630,.T.);
#630 = LINE('',#631,#632);
#631 = CARTESIAN_POINT('',(-4.75,2.5,-10.3));
#632 = VECTOR('',#633,1.);
#633 = DIRECTION('',(-1.,0.,0.));
#634 = ORIENTED_EDGE('',*,*,#580,.F.);
#635 = ORIENTED_EDGE('',*,*,#136,.F.);
#636 = PLANE('',#637);
#637 = AXIS2_PLACEMENT_3D('',#638,#639,#640);
#638 = CARTESIAN_POINT('',(-4.75,4.5,-10.3));
#639 = DIRECTION('',(-0.,-2.22044604925E-16,-1.));
#640 = DIRECTION('',(-1.,0.,0.));
#641 = ADVANCED_FACE('',(#642),#667,.F.);
#642 = FACE_BOUND('',#643,.F.);
#643 = EDGE_LOOP('',(#644,#652,#660,#666));
#644 = ORIENTED_EDGE('',*,*,#645,.T.);
#645 = EDGE_CURVE('',#153,#646,#648,.T.);
#646 = VERTEX_POINT('',#647);
#647 = CARTESIAN_POINT('',(-8.180000000006,2.5,6.));
#648 = LINE('',#649,#650);
#649 = CARTESIAN_POINT('',(-8.180000000006,4.5,6.));
#650 = VECTOR('',#651,1.);
#651 = DIRECTION('',(0.,-1.,2.22044604925E-16));
#652 = ORIENTED_EDGE('',*,*,#653,.T.);
#653 = EDGE_CURVE('',#646,#654,#656,.T.);
#654 = VERTEX_POINT('',#655);
#655 = CARTESIAN_POINT('',(-9.68,2.5,6.));
#656 = LINE('',#657,#658);
#657 = CARTESIAN_POINT('',(-8.180000000006,2.5,6.));
#658 = VECTOR('',#659,1.);
#659 = DIRECTION('',(-1.,0.,0.));
#660 = ORIENTED_EDGE('',*,*,#661,.F.);
#661 = EDGE_CURVE('',#155,#654,#662,.T.);
#662 = LINE('',#663,#664);
#663 = CARTESIAN_POINT('',(-9.68,4.5,6.));
#664 = VECTOR('',#665,1.);
#665 = DIRECTION('',(0.,-1.,2.22044604925E-16));
#666 = ORIENTED_EDGE('',*,*,#152,.F.);
#667 = PLANE('',#668);
#668 = AXIS2_PLACEMENT_3D('',#669,#670,#671);
#669 = CARTESIAN_POINT('',(-8.180000000006,4.5,6.));
#670 = DIRECTION('',(-0.,-2.22044604925E-16,-1.));
#671 = DIRECTION('',(-1.,0.,0.));
#672 = ADVANCED_FACE('',(#673),#691,.F.);
#673 = FACE_BOUND('',#674,.F.);
#674 = EDGE_LOOP('',(#675,#683,#689,#690));
#675 = ORIENTED_EDGE('',*,*,#676,.T.);
#676 = EDGE_CURVE('',#171,#677,#679,.T.);
#677 = VERTEX_POINT('',#678);
#678 = CARTESIAN_POINT('',(-8.180000000006,2.5,4.440892098501E-16));
#679 = LINE('',#680,#681);
#680 = CARTESIAN_POINT('',(-8.180000000006,4.5,0.));
#681 = VECTOR('',#682,1.);
#682 = DIRECTION('',(0.,-1.,2.22044604925E-16));
#683 = ORIENTED_EDGE('',*,*,#684,.T.);
#684 = EDGE_CURVE('',#677,#646,#685,.T.);
#685 = LINE('',#686,#687);
#686 = CARTESIAN_POINT('',(-8.180000000006,2.5,4.440892098501E-16));
#687 = VECTOR('',#688,1.);
#688 = DIRECTION('',(0.,2.22044604925E-16,1.));
#689 = ORIENTED_EDGE('',*,*,#645,.F.);
#690 = ORIENTED_EDGE('',*,*,#178,.F.);
#691 = PLANE('',#692);
#692 = AXIS2_PLACEMENT_3D('',#693,#694,#695);
#693 = CARTESIAN_POINT('',(-8.180000000006,4.5,0.));
#694 = DIRECTION('',(-1.,0.,0.));
#695 = DIRECTION('',(0.,2.22044604925E-16,1.));
#696 = ADVANCED_FACE('',(#697),#715,.F.);
#697 = FACE_BOUND('',#698,.F.);
#698 = EDGE_LOOP('',(#699,#700,#708,#714));
#699 = ORIENTED_EDGE('',*,*,#661,.T.);
#700 = ORIENTED_EDGE('',*,*,#701,.T.);
#701 = EDGE_CURVE('',#654,#702,#704,.T.);
#702 = VERTEX_POINT('',#703);
#703 = CARTESIAN_POINT('',(-9.68,2.5,4.440892098501E-16));
#704 = LINE('',#705,#706);
#705 = CARTESIAN_POINT('',(-9.68,2.5,6.));
#706 = VECTOR('',#707,1.);
#707 = DIRECTION('',(0.,-2.22044604925E-16,-1.));
#708 = ORIENTED_EDGE('',*,*,#709,.F.);
#709 = EDGE_CURVE('',#163,#702,#710,.T.);
#710 = LINE('',#711,#712);
#711 = CARTESIAN_POINT('',(-9.68,4.5,0.));
#712 = VECTOR('',#713,1.);
#713 = DIRECTION('',(0.,-1.,2.22044604925E-16));
#714 = ORIENTED_EDGE('',*,*,#162,.F.);
#715 = PLANE('',#716);
#716 = AXIS2_PLACEMENT_3D('',#717,#718,#719);
#717 = CARTESIAN_POINT('',(-9.68,4.5,6.));
#718 = DIRECTION('',(1.,0.,0.));
#719 = DIRECTION('',(0.,-2.22044604925E-16,-1.));
#720 = ADVANCED_FACE('',(#721),#732,.F.);
#721 = FACE_BOUND('',#722,.F.);
#722 = EDGE_LOOP('',(#723,#724,#730,#731));
#723 = ORIENTED_EDGE('',*,*,#709,.T.);
#724 = ORIENTED_EDGE('',*,*,#725,.T.);
#725 = EDGE_CURVE('',#702,#677,#726,.T.);
#726 = LINE('',#727,#728);
#727 = CARTESIAN_POINT('',(-9.68,2.5,4.440892098501E-16));
#728 = VECTOR('',#729,1.);
#729 = DIRECTION('',(1.,0.,0.));
#730 = ORIENTED_EDGE('',*,*,#676,.F.);
#731 = ORIENTED_EDGE('',*,*,#170,.F.);
#732 = PLANE('',#733);
#733 = AXIS2_PLACEMENT_3D('',#734,#735,#736);
#734 = CARTESIAN_POINT('',(-9.68,4.5,0.));
#735 = DIRECTION('',(0.,2.22044604925E-16,1.));
#736 = DIRECTION('',(1.,0.,0.));
#737 = ADVANCED_FACE('',(#738),#749,.F.);
#738 = FACE_BOUND('',#739,.F.);
#739 = EDGE_LOOP('',(#740,#746,#747,#748));
#740 = ORIENTED_EDGE('',*,*,#741,.F.);
#741 = EDGE_CURVE('',#408,#187,#742,.T.);
#742 = LINE('',#743,#744);
#743 = CARTESIAN_POINT('',(-6.11,6.5,4.41));
#744 = VECTOR('',#745,1.);
#745 = DIRECTION('',(0.,-1.,2.22044604925E-16));
#746 = ORIENTED_EDGE('',*,*,#407,.F.);
#747 = ORIENTED_EDGE('',*,*,#741,.T.);
#748 = ORIENTED_EDGE('',*,*,#186,.T.);
#749 = CYLINDRICAL_SURFACE('',#750,1.5);
#750 = AXIS2_PLACEMENT_3D('',#751,#752,#753);
#751 = CARTESIAN_POINT('',(-4.61,6.5,4.41));
#752 = DIRECTION('',(0.,1.,-2.22044604925E-16));
#753 = DIRECTION('',(-1.,0.,0.));
#754 = ADVANCED_FACE('',(#755),#771,.F.);
#755 = FACE_BOUND('',#756,.F.);
#756 = EDGE_LOOP('',(#757,#758,#764,#765));
#757 = ORIENTED_EDGE('',*,*,#444,.F.);
#758 = ORIENTED_EDGE('',*,*,#759,.T.);
#759 = EDGE_CURVE('',#421,#200,#760,.T.);
#760 = LINE('',#761,#762);
#761 = CARTESIAN_POINT('',(5.,6.5,-6.));
#762 = VECTOR('',#763,1.);
#763 = DIRECTION('',(0.,-1.,2.22044604925E-16));
#764 = ORIENTED_EDGE('',*,*,#197,.F.);
#765 = ORIENTED_EDGE('',*,*,#766,.F.);
#766 = EDGE_CURVE('',#437,#198,#767,.T.);
#767 = LINE('',#768,#769);
#768 = CARTESIAN_POINT('',(-5.,6.5,-6.));
#769 = VECTOR('',#770,1.);
#770 = DIRECTION('',(0.,-1.,2.22044604925E-16));
#771 = PLANE('',#772);
#772 = AXIS2_PLACEMENT_3D('',#773,#774,#775);
#773 = CARTESIAN_POINT('',(5.,6.5,-6.));
#774 = DIRECTION('',(-0.,-2.22044604925E-16,-1.));
#775 = DIRECTION('',(-1.,0.,0.));
#776 = ADVANCED_FACE('',(#777),#788,.F.);
#777 = FACE_BOUND('',#778,.F.);
#778 = EDGE_LOOP('',(#779,#780,#781,#782));
#779 = ORIENTED_EDGE('',*,*,#436,.F.);
#780 = ORIENTED_EDGE('',*,*,#766,.T.);
#781 = ORIENTED_EDGE('',*,*,#223,.F.);
#782 = ORIENTED_EDGE('',*,*,#783,.F.);
#783 = EDGE_CURVE('',#429,#216,#784,.T.);
#784 = LINE('',#785,#786);
#785 = CARTESIAN_POINT('',(-5.,6.5,-4.));
#786 = VECTOR('',#787,1.);
#787 = DIRECTION('',(0.,-1.,2.22044604925E-16));
#788 = PLANE('',#789);
#789 = AXIS2_PLACEMENT_3D('',#790,#791,#792);
#790 = CARTESIAN_POINT('',(-5.,6.5,-6.));
#791 = DIRECTION('',(-1.,0.,0.));
#792 = DIRECTION('',(0.,2.22044604925E-16,1.));
#793 = ADVANCED_FACE('',(#794),#805,.F.);
#794 = FACE_BOUND('',#795,.F.);
#795 = EDGE_LOOP('',(#796,#797,#798,#799));
#796 = ORIENTED_EDGE('',*,*,#428,.F.);
#797 = ORIENTED_EDGE('',*,*,#783,.T.);
#798 = ORIENTED_EDGE('',*,*,#215,.F.);
#799 = ORIENTED_EDGE('',*,*,#800,.F.);
#800 = EDGE_CURVE('',#419,#208,#801,.T.);
#801 = LINE('',#802,#803);
#802 = CARTESIAN_POINT('',(5.,6.5,-4.));
#803 = VECTOR('',#804,1.);
#804 = DIRECTION('',(0.,-1.,2.22044604925E-16));
#805 = PLANE('',#806);
#806 = AXIS2_PLACEMENT_3D('',#807,#808,#809);
#807 = CARTESIAN_POINT('',(-5.,6.5,-4.));
#808 = DIRECTION('',(0.,2.22044604925E-16,1.));
#809 = DIRECTION('',(1.,0.,0.));
#810 = ADVANCED_FACE('',(#811),#817,.F.);
#811 = FACE_BOUND('',#812,.F.);
#812 = EDGE_LOOP('',(#813,#814,#815,#816));
#813 = ORIENTED_EDGE('',*,*,#418,.F.);
#814 = ORIENTED_EDGE('',*,*,#800,.T.);
#815 = ORIENTED_EDGE('',*,*,#207,.F.);
#816 = ORIENTED_EDGE('',*,*,#759,.F.);
#817 = PLANE('',#818);
#818 = AXIS2_PLACEMENT_3D('',#819,#820,#821);
#819 = CARTESIAN_POINT('',(5.,6.5,-4.));
#820 = DIRECTION('',(1.,0.,0.));
#821 = DIRECTION('',(0.,-2.22044604925E-16,-1.));
#822 = ADVANCED_FACE('',(#823),#848,.F.);
#823 = FACE_BOUND('',#824,.F.);
#824 = EDGE_LOOP('',(#825,#833,#841,#847));
#825 = ORIENTED_EDGE('',*,*,#826,.T.);
#826 = EDGE_CURVE('',#232,#827,#829,.T.);
#827 = VERTEX_POINT('',#828);
#828 = CARTESIAN_POINT('',(4.75,2.5,-10.3));
#829 = LINE('',#830,#831);
#830 = CARTESIAN_POINT('',(4.75,4.5,-10.3));
#831 = VECTOR('',#832,1.);
#832 = DIRECTION('',(0.,-1.,2.22044604925E-16));
#833 = ORIENTED_EDGE('',*,*,#834,.T.);
#834 = EDGE_CURVE('',#827,#835,#837,.T.);
#835 = VERTEX_POINT('',#836);
#836 = CARTESIAN_POINT('',(4.75,2.5,-11.8));
#837 = LINE('',#838,#839);
#838 = CARTESIAN_POINT('',(4.75,2.5,-10.3));
#839 = VECTOR('',#840,1.);
#840 = DIRECTION('',(0.,-2.22044604925E-16,-1.));
#841 = ORIENTED_EDGE('',*,*,#842,.F.);
#842 = EDGE_CURVE('',#234,#835,#843,.T.);
#843 = LINE('',#844,#845);
#844 = CARTESIAN_POINT('',(4.75,4.5,-11.8));
#845 = VECTOR('',#846,1.);
#846 = DIRECTION('',(0.,-1.,2.22044604925E-16));
#847 = ORIENTED_EDGE('',*,*,#231,.F.);
#848 = PLANE('',#849);
#849 = AXIS2_PLACEMENT_3D('',#850,#851,#852);
#850 = CARTESIAN_POINT('',(4.75,4.5,-10.3));
#851 = DIRECTION('',(1.,0.,0.));
#852 = DIRECTION('',(0.,-2.22044604925E-16,-1.));
#853 = ADVANCED_FACE('',(#854),#872,.F.);
#854 = FACE_BOUND('',#855,.F.);
#855 = EDGE_LOOP('',(#856,#864,#870,#871));
#856 = ORIENTED_EDGE('',*,*,#857,.T.);
#857 = EDGE_CURVE('',#250,#858,#860,.T.);
#858 = VERTEX_POINT('',#859);
#859 = CARTESIAN_POINT('',(9.22,2.5,-10.3));
#860 = LINE('',#861,#862);
#861 = CARTESIAN_POINT('',(9.22,4.5,-10.3));
#862 = VECTOR('',#863,1.);
#863 = DIRECTION('',(0.,-1.,2.22044604925E-16));
#864 = ORIENTED_EDGE('',*,*,#865,.T.);
#865 = EDGE_CURVE('',#858,#827,#866,.T.);
#866 = LINE('',#867,#868);
#867 = CARTESIAN_POINT('',(9.22,2.5,-10.3));
#868 = VECTOR('',#869,1.);
#869 = DIRECTION('',(-1.,0.,0.));
#870 = ORIENTED_EDGE('',*,*,#826,.F.);
#871 = ORIENTED_EDGE('',*,*,#257,.F.);
#872 = PLANE('',#873);
#873 = AXIS2_PLACEMENT_3D('',#874,#875,#876);
#874 = CARTESIAN_POINT('',(9.22,4.5,-10.3));
#875 = DIRECTION('',(-0.,-2.22044604925E-16,-1.));
#876 = DIRECTION('',(-1.,0.,0.));
#877 = ADVANCED_FACE('',(#878),#896,.F.);
#878 = FACE_BOUND('',#879,.F.);
#879 = EDGE_LOOP('',(#880,#881,#889,#895));
#880 = ORIENTED_EDGE('',*,*,#842,.T.);
#881 = ORIENTED_EDGE('',*,*,#882,.T.);
#882 = EDGE_CURVE('',#835,#883,#885,.T.);
#883 = VERTEX_POINT('',#884);
#884 = CARTESIAN_POINT('',(9.22,2.5,-11.8));
#885 = LINE('',#886,#887);
#886 = CARTESIAN_POINT('',(4.75,2.5,-11.8));
#887 = VECTOR('',#888,1.);
#888 = DIRECTION('',(1.,0.,0.));
#889 = ORIENTED_EDGE('',*,*,#890,.F.);
#890 = EDGE_CURVE('',#242,#883,#891,.T.);
#891 = LINE('',#892,#893);
#892 = CARTESIAN_POINT('',(9.22,4.5,-11.8));
#893 = VECTOR('',#894,1.);
#894 = DIRECTION('',(0.,-1.,2.22044604925E-16));
#895 = ORIENTED_EDGE('',*,*,#241,.F.);
#896 = PLANE('',#897);
#897 = AXIS2_PLACEMENT_3D('',#898,#899,#900);
#898 = CARTESIAN_POINT('',(4.75,4.5,-11.8));
#899 = DIRECTION('',(0.,2.22044604925E-16,1.));
#900 = DIRECTION('',(1.,0.,0.));
#901 = ADVANCED_FACE('',(#902),#913,.F.);
#902 = FACE_BOUND('',#903,.F.);
#903 = EDGE_LOOP('',(#904,#905,#911,#912));
#904 = ORIENTED_EDGE('',*,*,#890,.T.);
#905 = ORIENTED_EDGE('',*,*,#906,.T.);
#906 = EDGE_CURVE('',#883,#858,#907,.T.);
#907 = LINE('',#908,#909);
#908 = CARTESIAN_POINT('',(9.22,2.5,-11.8));
#909 = VECTOR('',#910,1.);
#910 = DIRECTION('',(0.,2.22044604925E-16,1.));
#911 = ORIENTED_EDGE('',*,*,#857,.F.);
#912 = ORIENTED_EDGE('',*,*,#249,.F.);
#913 = PLANE('',#914);
#914 = AXIS2_PLACEMENT_3D('',#915,#916,#917);
#915 = CARTESIAN_POINT('',(9.22,4.5,-11.8));
#916 = DIRECTION('',(-1.,0.,0.));
#917 = DIRECTION('',(0.,2.22044604925E-16,1.));
#918 = ADVANCED_FACE('',(#919),#944,.F.);
#919 = FACE_BOUND('',#920,.F.);
#920 = EDGE_LOOP('',(#921,#929,#937,#943));
#921 = ORIENTED_EDGE('',*,*,#922,.T.);
#922 = EDGE_CURVE('',#266,#923,#925,.T.);
#923 = VERTEX_POINT('',#924);
#924 = CARTESIAN_POINT('',(3.,2.5,11.7));
#925 = LINE('',#926,#927);
#926 = CARTESIAN_POINT('',(3.,4.5,11.7));
#927 = VECTOR('',#928,1.);
#928 = DIRECTION('',(0.,-1.,2.22044604925E-16));
#929 = ORIENTED_EDGE('',*,*,#930,.T.);
#930 = EDGE_CURVE('',#923,#931,#933,.T.);
#931 = VERTEX_POINT('',#932);
#932 = CARTESIAN_POINT('',(-3.,2.5,11.7));
#933 = LINE('',#934,#935);
#934 = CARTESIAN_POINT('',(3.,2.5,11.7));
#935 = VECTOR('',#936,1.);
#936 = DIRECTION('',(-1.,0.,0.));
#937 = ORIENTED_EDGE('',*,*,#938,.F.);
#938 = EDGE_CURVE('',#268,#931,#939,.T.);
#939 = LINE('',#940,#941);
#940 = CARTESIAN_POINT('',(-3.,4.5,11.7));
#941 = VECTOR('',#942,1.);
#942 = DIRECTION('',(0.,-1.,2.22044604925E-16));
#943 = ORIENTED_EDGE('',*,*,#265,.F.);
#944 = PLANE('',#945);
#945 = AXIS2_PLACEMENT_3D('',#946,#947,#948);
#946 = CARTESIAN_POINT('',(3.,4.5,11.7));
#947 = DIRECTION('',(-0.,-2.22044604925E-16,-1.));
#948 = DIRECTION('',(-1.,0.,0.));
#949 = ADVANCED_FACE('',(#950),#968,.F.);
#950 = FACE_BOUND('',#951,.F.);
#951 = EDGE_LOOP('',(#952,#960,#966,#967));
#952 = ORIENTED_EDGE('',*,*,#953,.T.);
#953 = EDGE_CURVE('',#284,#954,#956,.T.);
#954 = VERTEX_POINT('',#955);
#955 = CARTESIAN_POINT('',(3.,2.5,10.2));
#956 = LINE('',#957,#958);
#957 = CARTESIAN_POINT('',(3.,4.5,10.2));
#958 = VECTOR('',#959,1.);
#959 = DIRECTION('',(0.,-1.,2.22044604925E-16));
#960 = ORIENTED_EDGE('',*,*,#961,.T.);
#961 = EDGE_CURVE('',#954,#923,#962,.T.);
#962 = LINE('',#963,#964);
#963 = CARTESIAN_POINT('',(3.,2.5,10.2));
#964 = VECTOR('',#965,1.);
#965 = DIRECTION('',(0.,2.22044604925E-16,1.));
#966 = ORIENTED_EDGE('',*,*,#922,.F.);
#967 = ORIENTED_EDGE('',*,*,#291,.F.);
#968 = PLANE('',#969);
#969 = AXIS2_PLACEMENT_3D('',#970,#971,#972);
#970 = CARTESIAN_POINT('',(3.,4.5,10.2));
#971 = DIRECTION('',(-1.,0.,0.));
#972 = DIRECTION('',(0.,2.22044604925E-16,1.));
#973 = ADVANCED_FACE('',(#974),#992,.F.);
#974 = FACE_BOUND('',#975,.F.);
#975 = EDGE_LOOP('',(#976,#977,#985,#991));
#976 = ORIENTED_EDGE('',*,*,#938,.T.);
#977 = ORIENTED_EDGE('',*,*,#978,.T.);
#978 = EDGE_CURVE('',#931,#979,#981,.T.);
#979 = VERTEX_POINT('',#980);
#980 = CARTESIAN_POINT('',(-3.,2.5,10.2));
#981 = LINE('',#982,#983);
#982 = CARTESIAN_POINT('',(-3.,2.5,11.7));
#983 = VECTOR('',#984,1.);
#984 = DIRECTION('',(0.,-2.22044604925E-16,-1.));
#985 = ORIENTED_EDGE('',*,*,#986,.F.);
#986 = EDGE_CURVE('',#276,#979,#987,.T.);
#987 = LINE('',#988,#989);
#988 = CARTESIAN_POINT('',(-3.,4.5,10.2));
#989 = VECTOR('',#990,1.);
#990 = DIRECTION('',(0.,-1.,2.22044604925E-16));
#991 = ORIENTED_EDGE('',*,*,#275,.F.);
#992 = PLANE('',#993);
#993 = AXIS2_PLACEMENT_3D('',#994,#995,#996);
#994 = CARTESIAN_POINT('',(-3.,4.5,11.7));
#995 = DIRECTION('',(1.,0.,0.));
#996 = DIRECTION('',(0.,-2.22044604925E-16,-1.));
#997 = ADVANCED_FACE('',(#998),#1009,.F.);
#998 = FACE_BOUND('',#999,.F.);
#999 = EDGE_LOOP('',(#1000,#1001,#1007,#1008));
#1000 = ORIENTED_EDGE('',*,*,#986,.T.);
#1001 = ORIENTED_EDGE('',*,*,#1002,.T.);
#1002 = EDGE_CURVE('',#979,#954,#1003,.T.);
#1003 = LINE('',#1004,#1005);
#1004 = CARTESIAN_POINT('',(-3.,2.5,10.2));
#1005 = VECTOR('',#1006,1.);
#1006 = DIRECTION('',(1.,0.,0.));
#1007 = ORIENTED_EDGE('',*,*,#953,.F.);
#1008 = ORIENTED_EDGE('',*,*,#283,.F.);
#1009 = PLANE('',#1010);
#1010 = AXIS2_PLACEMENT_3D('',#1011,#1012,#1013);
#1011 = CARTESIAN_POINT('',(-3.,4.5,10.2));
#1012 = DIRECTION('',(0.,2.22044604925E-16,1.));
#1013 = DIRECTION('',(1.,0.,0.));
#1014 = ADVANCED_FACE('',(#1015),#1026,.F.);
#1015 = FACE_BOUND('',#1016,.F.);
#1016 = EDGE_LOOP('',(#1017,#1023,#1024,#1025));
#1017 = ORIENTED_EDGE('',*,*,#1018,.F.);
#1018 = EDGE_CURVE('',#453,#300,#1019,.T.);
#1019 = LINE('',#1020,#1021);
#1020 = CARTESIAN_POINT('',(3.11,6.5,4.41));
#1021 = VECTOR('',#1022,1.);
#1022 = DIRECTION('',(0.,-1.,2.22044604925E-16));
#1023 = ORIENTED_EDGE('',*,*,#452,.F.);
#1024 = ORIENTED_EDGE('',*,*,#1018,.T.);
#1025 = ORIENTED_EDGE('',*,*,#299,.T.);
#1026 = CYLINDRICAL_SURFACE('',#1027,1.5);
#1027 = AXIS2_PLACEMENT_3D('',#1028,#1029,#1030);
#1028 = CARTESIAN_POINT('',(4.61,6.5,4.41));
#1029 = DIRECTION('',(0.,1.,-2.22044604925E-16));
#1030 = DIRECTION('',(-1.,0.,0.));
#1031 = ADVANCED_FACE('',(#1032),#1038,.F.);
#1032 = FACE_BOUND('',#1033,.T.);
#1033 = EDGE_LOOP('',(#1034,#1035,#1036,#1037));
#1034 = ORIENTED_EDGE('',*,*,#605,.T.);
#1035 = ORIENTED_EDGE('',*,*,#629,.T.);
#1036 = ORIENTED_EDGE('',*,*,#588,.T.);
#1037 = ORIENTED_EDGE('',*,*,#557,.T.);
#1038 = PLANE('',#1039);
#1039 = AXIS2_PLACEMENT_3D('',#1040,#1041,#1042);
#1040 = CARTESIAN_POINT('',(-2.53073800738,2.5,-1.073062730627));
#1041 = DIRECTION('',(0.,1.,-2.361138779328E-16));
#1042 = DIRECTION('',(0.,2.361138779328E-16,1.));
#1043 = ADVANCED_FACE('',(#1044),#1050,.F.);
#1044 = FACE_BOUND('',#1045,.T.);
#1045 = EDGE_LOOP('',(#1046,#1047,#1048,#1049));
#1046 = ORIENTED_EDGE('',*,*,#701,.T.);
#1047 = ORIENTED_EDGE('',*,*,#725,.T.);
#1048 = ORIENTED_EDGE('',*,*,#684,.T.);
#1049 = ORIENTED_EDGE('',*,*,#653,.T.);
#1050 = PLANE('',#1051);
#1051 = AXIS2_PLACEMENT_3D('',#1052,#1053,#1054);
#1052 = CARTESIAN_POINT('',(-2.53073800738,2.5,-1.073062730627));
#1053 = DIRECTION('',(0.,1.,-2.361138779328E-16));
#1054 = DIRECTION('',(0.,2.361138779328E-16,1.));
#1055 = ADVANCED_FACE('',(#1056),#1062,.F.);
#1056 = FACE_BOUND('',#1057,.T.);
#1057 = EDGE_LOOP('',(#1058,#1059,#1060,#1061));
#1058 = ORIENTED_EDGE('',*,*,#882,.T.);
#1059 = ORIENTED_EDGE('',*,*,#906,.T.);
#1060 = ORIENTED_EDGE('',*,*,#865,.T.);
#1061 = ORIENTED_EDGE('',*,*,#834,.T.);
#1062 = PLANE('',#1063);
#1063 = AXIS2_PLACEMENT_3D('',#1064,#1065,#1066);
#1064 = CARTESIAN_POINT('',(-2.53073800738,2.5,-1.073062730627));
#1065 = DIRECTION('',(0.,1.,-2.361138779328E-16));
#1066 = DIRECTION('',(0.,2.361138779328E-16,1.));
#1067 = ADVANCED_FACE('',(#1068),#1074,.F.);
#1068 = FACE_BOUND('',#1069,.T.);
#1069 = EDGE_LOOP('',(#1070,#1071,#1072,#1073));
#1070 = ORIENTED_EDGE('',*,*,#978,.T.);
#1071 = ORIENTED_EDGE('',*,*,#1002,.T.);
#1072 = ORIENTED_EDGE('',*,*,#961,.T.);
#1073 = ORIENTED_EDGE('',*,*,#930,.T.);
#1074 = PLANE('',#1075);
#1075 = AXIS2_PLACEMENT_3D('',#1076,#1077,#1078);
#1076 = CARTESIAN_POINT('',(-2.53073800738,2.5,-1.073062730627));
#1077 = DIRECTION('',(0.,1.,-2.361138779328E-16));
#1078 = DIRECTION('',(0.,2.361138779328E-16,1.));
#1079 = ( GEOMETRIC_REPRESENTATION_CONTEXT(3) 
GLOBAL_UNCERTAINTY_ASSIGNED_CONTEXT((#1083)) 
GLOBAL_UNIT_ASSIGNED_CONTEXT((#1080,#1081,#1082)) REPRESENTATION_CONTEXT
('Context #1','3D Context with UNIT and UNCERTAINTY') );
#1080 = ( LENGTH_UNIT() NAMED_UNIT(*) SI_UNIT(.MILLI.,.METRE.) );
#1081 = ( NAMED_UNIT(*) PLANE_ANGLE_UNIT() SI_UNIT($,.RADIAN.) );
#1082 = ( NAMED_UNIT(*) SI_UNIT($,.STERADIAN.) SOLID_ANGLE_UNIT() );
#1083 = UNCERTAINTY_MEASURE_WITH_UNIT(LENGTH_MEASURE(2.E-05),#1080,
  'distance_accuracy_value','confusion accuracy');
#1084 = PRODUCT_RELATED_PRODUCT_CATEGORY('part',$,(#7));
#1085 = MECHANICAL_DESIGN_GEOMETRIC_PRESENTATION_REPRESENTATION('',(
    #1086),#1079);
#1086 = STYLED_ITEM('color',(#1087),#15);
#1087 = PRESENTATION_STYLE_ASSIGNMENT((#1088,#1094));
#1088 = SURFACE_STYLE_USAGE(.BOTH.,#1089);
#1089 = SURFACE_SIDE_STYLE('',(#1090));
#1090 = SURFACE_STYLE_FILL_AREA(#1091);
#1091 = FILL_AREA_STYLE('',(#1092));
#1092 = FILL_AREA_STYLE_COLOUR('',#1093);
#1093 = COLOUR_RGB('',0.447058818107,0.474509808674,0.501960817233);
#1094 = CURVE_STYLE('',#1095,POSITIVE_LENGTH_MEASURE(0.1),#1096);
#1095 = DRAUGHTING_PRE_DEFINED_CURVE_FONT('continuous');
#1096 = COLOUR_RGB('',9.803921802644E-02,9.803921802644E-02,
  9.803921802644E-02);
ENDSEC;
END-ISO-10303-21;
